<svg id="Layer_32" data-name="Layer 32" xmlns="http://www.w3.org/2000/svg" viewBox="0 0 160 160"><defs><style>.cls-1{fill:#33140a;}</style></defs><path class="cls-1" d="M87.35,52.73a93.9,93.9,0,0,1,9.17-4.14c13.21-4.36,26.07,1.13,32.28,13.61a42.27,42.27,0,0,1,4,22.79,54.79,54.79,0,0,1-10.7,28.48c-4.87,6.59-10.91,11.76-18.69,14.63-13.42,5-26.75-.24-33.18-13-.92-1.83-1.8-2.51-3.94-2.5-8.13,0-15-3.37-21-8.59-10.62-9.22-16.32-21.08-18-34.92a41.51,41.51,0,0,1,3.84-24c3.69-7.36,9.33-12.47,17.45-14.48,6.87-1.71,13.39-.45,19.58,2.7,7.79,4,13.53,10.08,18,17.46C86.64,51.48,87.06,52.23,87.35,52.73Zm9.08,2c-1.11.81-2.05,1.44-2.93,2.15C85,63.81,79.7,72.8,76.74,83.23c-2.58,9.13-3,18.3.2,27.4,1.79,5.18,4.66,9.61,9.36,12.65a2,2,0,0,0,1.19.43C92,123,96,121.16,98.85,117.38c3.66-4.86,4.46-10.49,4.23-16.37-.23-5.65-1.8-11-3.59-16.31C96.25,75.07,94.35,65.27,96.43,54.76Zm5.34,67.81,1-.42a39.89,39.89,0,0,0,11-7.47,47.71,47.71,0,0,0,15-30,32,32,0,0,0-3.68-19.78c-3.87-6.84-9.89-11.17-19-11.77a2.83,2.83,0,0,0-3,1.35,19.07,19.07,0,0,0-2.91,10A40.67,40.67,0,0,0,103,80c2.3,6.29,4.79,12.53,5.31,19.19s-.3,13.36-3.9,19.5C103.68,120,102.75,121.15,101.77,122.57ZM70.56,108c-.1-.81-.19-1.51-.27-2.22s-.19-1.52-.26-2.28a60.55,60.55,0,0,1,2.42-22.82A1.48,1.48,0,0,0,72,79a56.92,56.92,0,0,0-11.88-9.32c-3-1.78-6-3.55-8.92-5.53C44.47,59.48,38.53,54,34.41,46.92a3.07,3.07,0,0,0-.4-.37A39.44,39.44,0,0,0,32.24,59a55,55,0,0,0,12,33.84,40.51,40.51,0,0,0,18,13.64A24.37,24.37,0,0,0,70.56,108Zm2-36.28A61.55,61.55,0,0,1,82.05,57.8a1.4,1.4,0,0,0,0-1.2A46.45,46.45,0,0,0,75.4,46.55C71,41.47,65.79,37.36,59.16,35.49S46.62,34.58,41.34,39a1.79,1.79,0,0,0-.57,1.45A28.44,28.44,0,0,0,42.52,46c2.45,5,6.43,8.69,10.77,12C59.47,62.83,66.86,65.87,72.53,71.69Z"/></svg>