<svg id="Layer_24" data-name="Layer 24" xmlns="http://www.w3.org/2000/svg" viewBox="0 0 160 160"><defs><style>.cls-1{fill:#33140a;}</style></defs><path class="cls-1" d="M80.08,147.29c-36.7.1-67.28-30.19-67.38-66.74a67.3,67.3,0,1,1,67.38,66.74ZM33.91,37.07C19.07,54.34,13.36,73.94,19.38,95.84c7,25.32,24,40.86,49.84,45.72,20.16,3.79,38-2.09,53-15.33l-18.75-18.75c-1.09,7-2.23,14.22-3.38,21.48-.29,1.84-1,2.44-2.93,2.44H62.59c-1.9,0-2.54-.61-2.91-2.47-1.66-8.28-2.46-16.69-4.43-25-2.71-11.41-4.49-23-6.59-34.59-.13-.73.44-1.6.72-2.39.12-.32.5-.62.46-.9-.29-2.11-.66-4.21-1-6.25-2.07-.47-2.55-1.06-2.56-3,0-2.15,0-4.3,0-6.44a2.61,2.61,0,0,0-.64-1.57C43.85,47,42,45.2,40.2,43.38Zm3.31-3c3,3,5.91,5.85,8.8,8.76,1,1,1.93,2.36,3.69,1.24a.84.84,0,0,1,.55,0c1.05.21,1.43-.39,1.76-1.28.86-2.31,1.8-4.59,2.73-6.88s2-3,4.46-3q20.73,0,41.44,0A4.18,4.18,0,0,1,105,35.73c1,2.47,1.93,5,3,7.38a1.75,1.75,0,0,0,1.24.91c2.89.22,4.29,1.65,4.3,4.57,0,2.66,0,5.32,0,8,0,2.24-.34,2.69-2.59,3.36-.27,1.76-.52,3.56-.83,5.35a1.85,1.85,0,0,0,.49,2,3,3,0,0,1,.54,2.29q-2.84,15.6-5.83,31.18a2,2,0,0,0,.66,2.07q9.54,9.47,19,19c.25.25.53.48.8.72,21.32-22,24.15-61.17-1.49-86.86S59.41,12.64,37.22,34.11ZM53.57,70.94c0,.41,0,.68.07,1,1.83,9.75,3.69,19.5,5.48,29.26.18,1,.58,1.15,1.46,1.15q18.61,0,37.22,0a14.34,14.34,0,0,0,1.43-.15c-.72-.59-1.18-.92-1.58-1.31-9-9-18.14-18-27.07-27.16a7.85,7.85,0,0,0-6.77-2.78C60.43,71.13,57,70.94,53.57,70.94Zm7.18,35.89c1.06,6.77,2.1,13.39,3.14,20h32l3.13-20Zm40.52-9c1.68-9,3.35-17.84,5-26.76H74.53ZM109,48.66H51.73c2,2,3.9,3.76,5.68,5.61a3,3,0,0,0,2.43,1q23.85,0,47.7,0H109ZM103.44,44c-.78-1.92-1.57-3.71-2.2-5.54a1.47,1.47,0,0,0-1.71-1.15c-6,0-11.94,0-17.91,0-7.13,0-14.26,0-21.4,0-.47,0-1.21.19-1.36.51-.9,2-1.66,4-2.51,6.13ZM62.9,59.8c2.08,2.05,3.95,3.85,5.75,5.71a2.89,2.89,0,0,0,2.3,1c11,0,21.91,0,32.86,0h1.54c.35-2.29.67-4.44,1-6.66Zm.51,6.58c-1.95-1.87-3.74-3.35-5.23-5.09a4.37,4.37,0,0,0-4.76-1.41l1,6.5Z"/><path class="cls-1" d="M68.68,95.29a2.3,2.3,0,0,1-2,2.5,2.25,2.25,0,0,1-2.41-2c-.4-2.89-.78-5.8-1.1-8.7a2.24,2.24,0,1,1,4.44-.52C68,89.49,68.32,92.44,68.68,95.29Z"/><path class="cls-1" d="M66.72,79.54a2.32,2.32,0,0,1-2,2.57,2.27,2.27,0,0,1-2.46-2A16.09,16.09,0,0,1,62,77.66a2.21,2.21,0,0,1,4.38-.48A22.36,22.36,0,0,1,66.72,79.54Z"/></svg>