<svg id="Layer_1" data-name="Layer 1" xmlns="http://www.w3.org/2000/svg" viewBox="0 0 27 27"><path d="M20.48,10.67c5.1.69,7,5.46,5.1,9.72A9,9,0,0,1,16.4,25.9,16.41,16.41,0,0,1,14,25.09c-.25-.08-.65-.17-.8,0C10.59,27.17,7,26.7,4.4,24.68a9.37,9.37,0,0,1-3.34-9.79A6.12,6.12,0,0,1,5.17,10.6a.67.67,0,0,0,.56-.78A9.38,9.38,0,0,1,14.24.59c4.86-.41,8.28,4.21,6.64,9C20.76,9.92,20.63,10.26,20.48,10.67Zm-7.33,8.85a4.13,4.13,0,0,0,4.34,4.31,7.13,7.13,0,0,0,6.63-6.64,4.11,4.11,0,0,0-4.21-4.35A7.09,7.09,0,0,0,13.15,19.52Zm-3.6-9c.2-1.71,1.52-2.4,3-2.88a4.44,4.44,0,0,0,3.21-2.92,1,1,0,0,1,1.5-.64c.59.3.7.87.44,1.6A5.17,5.17,0,0,1,14,9.38c-.35.09-.66.33-1,.42a2.06,2.06,0,0,0-1.54,1.8l1.93,1.77a19.41,19.41,0,0,1,3.23-1.95,3.25,3.25,0,0,0,2.07-2.25c.65-1.85.64-3.66-.83-5.15a4.56,4.56,0,0,0-5.2-.88A7.2,7.2,0,0,0,8,8.62c-.34,1.53-.19,1.71,1.34,2ZM11.9,22.81l-.2-.09c-.9.93-1.19.88-2.29.14A3.87,3.87,0,0,1,7.3,19.38c0-.11-.06-.22-.06-.33a4.31,4.31,0,0,0-2-3.84A1,1,0,0,1,5,13.6a1.12,1.12,0,0,1,1.6,0C8.18,14.65,9.35,16,9.28,18c0,.39.18.78.18,1.17,0,1.12.78,1.59,1.63,2.12a17.54,17.54,0,0,1,0-2.91A24.77,24.77,0,0,1,12,15.59a.75.75,0,0,0-.15-.58,6.36,6.36,0,0,0-3.33-2.36,4.17,4.17,0,0,0-5.45,3.07,7.2,7.2,0,0,0,5.19,8.43,3.82,3.82,0,0,0,3.31-.66C11.75,23.35,11.79,23,11.9,22.81Z"/><path d="M21.8,14.76c-.37.77-.7,1.39-1,2A1.89,1.89,0,0,1,19.59,18c-.42.14-.8.38-1.21.52A3.13,3.13,0,0,0,16,20.75a.83.83,0,0,1-1.22.56c-.54-.21-.71-.71-.45-1.35s.49-1.17.78-1.73a1.34,1.34,0,0,1,.55-.53A10.05,10.05,0,0,1,17.13,17a3.65,3.65,0,0,0,2.71-2.47.82.82,0,0,1,1.1-.59C21.27,14.11,21.51,14.48,21.8,14.76Z"/></svg>