<svg id="Layer_1" data-name="Layer 1" xmlns="http://www.w3.org/2000/svg" viewBox="0 0 27 27"><defs><style>.cls-1{fill:#fff;}</style></defs><path class="cls-1" d="M11.75,19.36C10,18,8.27,16.65,6.54,15.32a10.16,10.16,0,0,0-3.86-2c-.71-.17-1.1.09-1,.72a5.49,5.49,0,0,0,.55,2.36,8.21,8.21,0,0,0,6.51,4A3.47,3.47,0,0,0,11.75,19.36Z"/><path class="cls-1" d="M25.37,17.33l-2.55-.23c-2.32-.21-4.62-.49-6.94-.58-.7,0-1.86.27-2,.72-.34.91.55,1.61,1.25,2.2,0,0,.1,0,.15.07a8,8,0,0,0,6.55.84A4.53,4.53,0,0,0,25.37,17.33Z"/><path class="cls-1" d="M12.24,18.12c0-2.45-2.23-4.74-5.38-5.8-1.42-.48-2.9-.45-3.31.08C7,13.4,9.11,16.39,12.24,18.12Z"/><path class="cls-1" d="M24.93,16c-.5-1.45-2.71-2.35-4.58-2.5a7,7,0,0,0-5.79,1.89C18.06,14.57,21.41,16.21,24.93,16Z"/><path class="cls-1" d="M11.75,19.36A3.47,3.47,0,0,1,8.7,20.42a8.21,8.21,0,0,1-6.51-4,5.49,5.49,0,0,1-.55-2.36c-.06-.63.33-.89,1-.72a10.16,10.16,0,0,1,3.86,2C8.27,16.65,10,18,11.75,19.36Z"/><path class="cls-1" d="M25.37,17.33a4.53,4.53,0,0,1-3.57,3,8,8,0,0,1-6.55-.84c-.05,0-.11,0-.15-.07-.7-.59-1.59-1.29-1.25-2.2.17-.45,1.33-.75,2-.72,2.32.09,4.62.37,6.94.58Z"/><path class="cls-1" d="M12.24,18.12C9.11,16.39,7,13.4,3.55,12.4c.41-.53,1.89-.56,3.31-.08C10,13.38,12.22,15.67,12.24,18.12Z"/><path class="cls-1" d="M24.93,16c-3.52.17-6.87-1.47-10.37-.61a7,7,0,0,1,5.79-1.89C22.22,13.69,24.43,14.59,24.93,16Z"/><path class="cls-1" d="M9.1,11c.5,1.45,2.71,2.35,4.59,2.5a6.93,6.93,0,0,0,5.78-1.89C16,12.43,12.62,10.79,9.1,11Z"/><path class="cls-1" d="M8.66,9.67a4.53,4.53,0,0,1,3.57-3,8,8,0,0,1,6.55.84s.11,0,.15.07c.7.59,1.59,1.29,1.25,2.2-.16.45-1.33.75-2,.72-2.31-.09-4.62-.37-6.93-.58Z"/><path class="cls-1" d="M9.1,11c3.52-.17,6.87,1.47,10.37.61a6.93,6.93,0,0,1-5.78,1.89C11.81,13.31,9.6,12.41,9.1,11Z"/></svg>