<svg id="Layer_27" data-name="Layer 27" xmlns="http://www.w3.org/2000/svg" viewBox="0 0 160 160"><defs><style>.cls-1{fill:#33140a;}</style></defs><path class="cls-1" d="M96.72,87.54v2c0,3.8,0,7.6,0,11.4a3.77,3.77,0,0,1-1.2,2.88q-5.87,5.83-11.7,11.71a3.69,3.69,0,0,1-2.78,1.18c-8,0-15.92,0-23.88,0a4.43,4.43,0,0,1-2.75-1.14c-4-3.85-7.89-7.83-11.83-11.75A3.64,3.64,0,0,1,41.46,101c0-4.16,0-8.32,0-12.48V87.32c-2.23-.53-4.41-.87-6.47-1.56-6.81-2.28-11-7.26-13.69-13.71a60.71,60.71,0,0,1-4-18.91c-.26-3.46-.34-7-.41-10.42,0-2.51,2.12-4.06,4.24-3.16A3,3,0,0,1,23,42.13c.26,2.17,1.41,3.39,3.17,3.33s2.93-1.42,3-3.63c.45-11.39,5.66-19.95,15.42-25.72a28.8,28.8,0,0,1,14.8-3.84,23.52,23.52,0,0,1,4.9.19,35.51,35.51,0,0,1,5.11,1.88c2.06-1.9,5-2.07,8-2.11,8.6-.11,16.15,2.48,22.36,8.49a29.27,29.27,0,0,1,9.22,21c.06,2,.74,3.17,2.15,3.63a3.08,3.08,0,0,0,4-2.88c.22-2.37,2.28-3.75,4.29-2.85a2.87,2.87,0,0,1,1.84,2.73c-.07,10-.55,19.93-4.27,29.37-2.26,5.72-5.71,10.53-11.48,13.09A78.81,78.81,0,0,1,96.72,87.54ZM93.5,59.32c-1,.11-1.7.22-2.41.28a3,3,0,0,0-2.69,1.53,3.85,3.85,0,0,1-5.69.83,3.33,3.33,0,0,0-3.29-.74,10.32,10.32,0,0,1-1.48.18A3.43,3.43,0,0,1,74,58.56a3.36,3.36,0,0,1,3.07-3.79c2.5-.37,5-.69,7.52-1l8.52-1.2a6.29,6.29,0,0,0-5-5.27,67.17,67.17,0,0,0-7.73-1.35c-3.77-.49-7.57-.81-10.89-2.88a1,1,0,0,0-.84,0c-3.28,2-7,2.35-10.75,2.87a71.33,71.33,0,0,0-8.37,1.56,5.92,5.92,0,0,0-4.44,4.94c.69.1,1.3.2,1.92.27,5.84.67,11.69,1.31,17.52,2,3,.36,3.84,1.36,3.84,4.33q0,9.77,0,19.54v1.68c1.55,0,2.94,0,4.33,0,2.45,0,4,1.29,4,3.33S75.23,87,72.7,87c-2.36,0-4.71,0-7.07,0-2.84,0-4.13-1.26-4.13-4q0-10.23,0-20.46V61.12c-1.39-.18-2.6-.38-3.82-.45a1.75,1.75,0,0,0-1.21.51,4.25,4.25,0,0,1-7.17-.79c-.17-.31-.49-.7-.79-.76-1.19-.2-2.4-.27-3.67-.4,0,.47-.08.81-.08,1.15q0,19.82,0,39.61a2.86,2.86,0,0,0,.82,1.79q5.07,5,10.28,9.92a3,3,0,0,0,1.85.77q11.41.07,22.82,0a2.83,2.83,0,0,0,1.75-.7c3.43-3.24,6.79-6.55,10.22-9.8a2.82,2.82,0,0,0,1-2.28q0-19.41,0-38.82ZM40,80.9V79.33c0-7.76-.05-15.52.07-23.28.09-6.11,3.47-10.54,9.41-12.3a70.44,70.44,0,0,1,7.81-1.53c2.16-.38,4.35-.64,6.49-1.09A2.36,2.36,0,0,0,66,38.75c0-6.56,0-13.11,0-19.67a3,3,0,0,0-2.85-3c-4.75-.2-9.5-.12-13.94,1.86C39.23,22.39,34,30,33.5,40.72c-.22,5-3.28,8.8-8.07,9.59a28.94,28.94,0,0,1-4.57,0,1.31,1.31,0,0,0,0,.38c.5,3.66.85,7.34,1.57,11a29.27,29.27,0,0,0,5.7,13.14A16.5,16.5,0,0,0,40,80.9Zm77.28-30.55a30,30,0,0,1-4.66,0,9.52,9.52,0,0,1-8-9.51c-.3-9.08-4.33-16.13-12.11-21.06-5.36-3.4-11.36-4-17.53-3.65a3,3,0,0,0-2.8,3c0,6.51,0,13,0,19.54a2.19,2.19,0,0,0,1.63,2.26,21.83,21.83,0,0,0,3.19.78c3.33.53,6.71.83,10,1.55,5.58,1.22,9.54,4.33,10.7,10.12a23.7,23.7,0,0,1,.39,4.69c0,7.14,0,14.28,0,21.41v1.35c.4,0,.61,0,.81,0s.59-.07.88-.12c6-1,10-4.48,12.69-9.68C115.82,64.53,116.72,57.47,117.31,50.35Z"/><path class="cls-1" d="M126.52,140.62c-7,4.44-14.39,7.29-22.75,7.15-6-.1-11.35-1.81-15.6-6.18-4.84-5-5.89-11-4.55-17.59,1.46-7.22,5.33-13.1,10.62-18.06,7.63-7.14,16.64-11.28,27.19-11.67a23.76,23.76,0,0,1,11.51,2.42c7.66,3.79,11.46,11.82,9.79,20.8-1.44,7.66-5.54,13.81-11.17,19C130,138,128.2,139.25,126.52,140.62Zm-36.18-3.56c.41.52.57.75.77,1,3.6,3.8,8.21,5.08,13.25,5.11,7.11,0,13.45-2.4,19.24-6.32,6.6-4.48,11.58-10.33,14-18.09a16.15,16.15,0,0,0,.24-9.58c-1.63.18-3.15.48-4.68.51-4,.06-6.55,1.74-8,5.45a12.37,12.37,0,0,1-11.87,8.14c-4,0-6.54,1.72-8,5.44a12.37,12.37,0,0,1-12,8.19C92.38,136.88,91.53,137,90.34,137.06Zm-1.93-4.33c1.86-.17,3.48-.4,5.1-.46,3.47-.13,6.3-1.86,7.36-5.11,1.68-5.19,7.16-8.6,12.22-8.57,4,0,6.42-1.78,7.86-5.44A12.4,12.4,0,0,1,132.84,105c.85,0,1.7-.1,2.64-.16a11.74,11.74,0,0,0-5.29-4.35,21,21,0,0,0-12.64-1.37,37.84,37.84,0,0,0-27.09,19.17A19.6,19.6,0,0,0,88.41,132.73Z"/></svg>