<svg id="Layer_34" data-name="Layer 34" xmlns="http://www.w3.org/2000/svg" viewBox="0 0 160 160"><defs><style>.cls-1{fill:#33140a;}</style></defs><path class="cls-1" d="M51.82,88.31a44.81,44.81,0,0,0-1.51-4.23A2.48,2.48,0,0,0,48.84,83C36.28,79.5,28,71.51,24.2,59.09,18.22,39.57,31.78,18.43,52,15.5A34.48,34.48,0,0,1,67,82.68c-1.65.45-2.59,1.16-2.91,2.83a23.72,23.72,0,0,1-.91,2.74c2,.45,3.89.8,5.74,1.32a23.39,23.39,0,0,1,10.45,5.62,10.83,10.83,0,0,1,3.47,8.17c-.06,8.5-.12,17,0,25.5a11.79,11.79,0,0,1-5,10.15c-4.23,3.23-9.14,4.71-14.32,5.41a40,40,0,0,1-21.56-2.54,26.33,26.33,0,0,1-5.28-3.13A11.17,11.17,0,0,1,32,129.14c.12-8.27.19-16.56,0-24.83C31.8,99.23,34,95.72,38,93.05a30.58,30.58,0,0,1,12.25-4.48Zm5.69,3.16c.88-2.61,1.77-4.7,2.3-6.87.82-3.41,2.26-6,6.23-6a.76.76,0,0,0,.16,0A30.26,30.26,0,0,0,86.39,41C82.33,26.61,67,17.14,52.38,19.74a30.55,30.55,0,0,0-25,34C29,65.55,38.33,76.34,50,78.84c2.53.54,3.82,1.66,4.49,4.09C55.28,85.68,56.39,88.33,57.51,91.47Zm-4.23,1c-1.65.29-3.24.48-4.79.85-3.59.86-7,2.1-9.83,4.63-3.2,2.9-3.3,6.36,0,9.17a19.74,19.74,0,0,0,5.64,3.43A37.1,37.1,0,0,0,67,111.67c3.71-.91,7.18-2.36,9.82-5.28,2.13-2.35,2.3-5,.23-7.36-4.08-4.57-9.65-5.68-15.38-6.55-.71,2.08-1.35,3.9-1.95,5.74-.36,1.1-1,1.94-2.2,1.94s-1.84-.82-2.2-1.93C54.71,96.34,54,94.49,53.28,92.44Zm25.15,37.31c-14.1,7.95-28.08,8-42.18,0A5,5,0,0,0,38,134.13a26,26,0,0,0,6.21,4.05c7.5,3,15.26,3.11,23,1.16a18.58,18.58,0,0,0,9.54-5.13A5.23,5.23,0,0,0,78.43,129.75Zm-42.15-9.26a4.76,4.76,0,0,0,1.61,4.31,25.65,25.65,0,0,0,6.17,4.09c8.07,3.21,16.34,3.21,24.63.78a17.19,17.19,0,0,0,8-4.6,5.31,5.31,0,0,0,1.75-4.54C64.33,128.42,50.4,128.46,36.28,120.49Zm0-9.26a5,5,0,0,0,1.64,4.32,25.13,25.13,0,0,0,5.86,4c7.41,3.13,15.11,3.25,22.88,1.49a19.31,19.31,0,0,0,9.95-5.07c1.29-1.33,2.17-2.86,1.86-4.67C64.34,119.21,50.4,119.22,36.24,111.23Z"/><path class="cls-1" d="M86.46,107.53c0-7.22.1-14.45,0-21.66A11.56,11.56,0,0,1,91.32,76c4.44-3.44,9.64-5,15.11-5.57,7.92-.87,15.69-.25,22.83,3.61a24.88,24.88,0,0,1,5.66,4.55,8.52,8.52,0,0,1,2.3,6.24q0,22.75,0,45.5c0,3.57-1.87,6.2-4.51,8.34-4.28,3.47-9.34,5-14.69,5.73-7.86,1.05-15.53.41-22.77-3.07-4-1.92-7.38-4.57-8.54-9.18a9,9,0,0,1-.22-2.14C86.45,122.53,86.46,115,86.46,107.53Zm25.38-12.42c2.59-.3,5.2-.44,7.75-.92,4.3-.82,8.4-2.21,11.53-5.49,2.49-2.61,2.59-5.66-.07-8.06a21.1,21.1,0,0,0-6.25-4,36.87,36.87,0,0,0-22.4-1.16c-3.77.9-7.3,2.34-10,5.29-2.22,2.42-2.33,5.24-.06,7.59A18,18,0,0,0,97,91.82C101.61,94.22,106.66,94.9,111.84,95.11Zm-21,16.76a4.34,4.34,0,0,0,1.57,4.28,26,26,0,0,0,6.18,4.08c7.21,3,14.7,3.07,22.24,1.42,3.84-.85,7.45-2.26,10.26-5.17a5.26,5.26,0,0,0,1.81-4.61C118.83,119.77,104.89,119.77,90.82,111.87Zm42.1,17.88c-14.17,7.94-28.11,7.95-42.13,0A4.56,4.56,0,0,0,92.37,134a27.26,27.26,0,0,0,6.32,4.15c7,2.87,14.27,3,21.6,1.5a21.34,21.34,0,0,0,10-4.57C132,133.7,133.16,132,132.92,129.75Zm0-36.38c-14.13,7.94-28.07,7.91-42.08,0a4.31,4.31,0,0,0,1.5,4.21,27.63,27.63,0,0,0,6.45,4.26c6.81,2.77,13.93,3,21.1,1.55a21.68,21.68,0,0,0,10.5-4.7C131.94,97.29,133.15,95.68,132.89,93.37ZM90.8,102.6A4.7,4.7,0,0,0,92.48,107a24.32,24.32,0,0,0,5.76,3.84c7.41,3.11,15.11,3.23,22.87,1.47,3.78-.86,7.31-2.3,10.06-5.2a5.21,5.21,0,0,0,1.71-4.5C118.84,110.52,104.89,110.55,90.8,102.6Zm-.36,18.66c.65,1.22,1,2.75,2,3.6a23.09,23.09,0,0,0,6,4c7.25,3,14.79,3.11,22.38,1.44,3.84-.85,7.44-2.27,10.24-5.18a5,5,0,0,0,1.77-4C118.84,129,104.91,129,90.44,121.26Z"/><path class="cls-1" d="M70.82,42.7c10,1.35,13.62,10.71,10,19.07-3.11,7.17-10.69,11.81-18,10.78-1.6-.22-3.11-1.09-4.68-1.58-.5-.16-1.27-.33-1.58-.08-5.13,4.16-12.17,3.23-17.25-.73C33.46,65.61,30.7,57.61,32.74,51a12,12,0,0,1,8.06-8.42,1.33,1.33,0,0,0,1.1-1.52A18.38,18.38,0,0,1,58.57,23c9.54-.81,16.23,8.24,13,17.61C71.37,41.24,71.11,41.91,70.82,42.7ZM56.45,60.06A8.09,8.09,0,0,0,65,68.51c6.62-.12,12.88-6.39,13-13A8.07,8.07,0,0,0,69.69,47C63,46.89,56.48,53.32,56.45,60.06ZM49.39,42.43c.39-3.35,3-4.71,5.91-5.65s5.28-2.52,6.29-5.71a2,2,0,0,1,2.94-1.26c1.16.59,1.39,1.71.87,3.14-1.29,3.54-3.31,6.29-7.21,7.23-.69.17-1.3.64-2,.83a4,4,0,0,0-3,3.52L57,48c2.18-1.35,4.1-3,6.33-3.81a6.41,6.41,0,0,0,4-4.42c1.27-3.63,1.25-7.17-1.62-10.08s-6.55-3.1-10.2-1.72a14.08,14.08,0,0,0-9.23,10.73c-.66,3-.38,3.36,2.63,3.84A2.16,2.16,0,0,0,49.39,42.43ZM54,66.51l-.39-.18c-1.75,1.81-2.32,1.72-4.49.28C46.59,65,44.88,63,45,59.78c0-.21-.12-.43-.13-.65a8.42,8.42,0,0,0-4-7.51,2,2,0,0,1-.42-3.17c1-1,2-.84,3.13-.07,3.11,2.12,5.39,4.68,5.26,8.75,0,.76.36,1.53.35,2.3,0,2.2,1.53,3.11,3.19,4.15a35.87,35.87,0,0,1,.06-5.7,48.24,48.24,0,0,1,1.73-5.52,1.46,1.46,0,0,0-.29-1.14,12.57,12.57,0,0,0-6.54-4.64c-5-1.44-9.32,1-10.67,6C34.84,59.44,40,67.79,46.86,69.13a7.52,7.52,0,0,0,6.48-1.28C53.69,67.56,53.78,67,54,66.51Z"/><path class="cls-1" d="M76,51.12c-.84,1.75-1.6,3.17-2.19,4.65A4.3,4.3,0,0,1,71,58.53c-.94.31-1.81.86-2.75,1.17-2.58.85-4.62,2.16-5.38,5A1.91,1.91,0,0,1,60.05,66c-1.23-.48-1.6-1.62-1-3.06s1.1-2.67,1.76-4a3.08,3.08,0,0,1,1.26-1.19,21.61,21.61,0,0,1,3.33-1.5c2.91-1,5.23-2.45,6.16-5.62A1.85,1.85,0,0,1,74,49.35C74.8,49.64,75.33,50.49,76,51.12Z"/></svg>