<svg id="Layer_26" data-name="Layer 26" xmlns="http://www.w3.org/2000/svg" viewBox="0 0 160 160"><defs><style>.cls-1{fill:#33140a;}</style></defs><path class="cls-1" d="M113.11,53v7.77c0,3.33-.93,4.26-4.28,4.26h-1.78v5.87h12c0-.87,0-1.77,0-2.68A3,3,0,0,1,122.32,65c4,0,8,0,12,0a9,9,0,0,1,0,18c-4,.06-8,0-12,0-2.09,0-3.21-1.18-3.25-3.31,0-.82,0-1.64,0-2.55h-12c0,.85,0,1.71,0,2.57,0,2.15-1.12,3.28-3.24,3.29-3.87,0-7.73,0-11.6,0a2.88,2.88,0,0,1-3.15-3.22c0-4.31,0-8.61,0-12.92V65H86.69C84.14,65,83,63.84,83,61.32c0-2.73,0-5.46,0-8.28H77.12v72.09h38c3,0,4,.92,4,3.91,0,3.33,0,6.66,0,10s-.88,4.12-4,4.12H20.62c-2.72,0-3.77-1-3.77-3.69V20.67c0-2.81,1-3.83,3.77-3.83h94.85c2.56,0,3.61,1.07,3.61,3.68q0,14.18,0,28.34c0,3.18-.92,4.08-4.13,4.09ZM58.86,22.84H57.13c-10.81,0-21.62,0-32.43,0-1.45,0-1.89.3-1.89,1.84q.07,49.4,0,98.8c0,.52,0,1,.08,1.59H58.86Zm18.25.06V46.81H113V22.9Zm-12,0V125h5.75V22.9ZM113,131.23H22.94v5.84H113ZM107,53H89.14v5.75H107ZM95.1,76.93H101V65.07H95.1Zm30.13.06c3.13,0,6.15.07,9.16,0A2.9,2.9,0,0,0,137.14,74a2.86,2.86,0,0,0-2.63-3c-3.06-.13-6.13,0-9.28,0Z"/></svg>