<svg id="Layer_31" data-name="Layer 31" xmlns="http://www.w3.org/2000/svg" viewBox="0 0 160 160"><defs><style>.cls-1{fill:#33140a;}</style></defs><path class="cls-1" d="M104.79,123.1c0,4.08,0,8,0,11.86a6.19,6.19,0,0,1-6.59,6.6H37c-4,0-6.59-2.59-6.59-6.49V62.12c0-1.93.7-2.61,2.64-2.62H35.5c-1.75-6-.74-8.9,4.09-11.75-1.46-3.07-1.27-6,1.11-8.61s5.68-2.2,8.66-2.21a21.74,21.74,0,0,1-.25-4.12,7.09,7.09,0,0,1,7.16-6.13c3.78,0,7.57,0,11.36,0a2.3,2.3,0,0,0,1.56-.77c1.64-2,3.17-4.15,4.76-6.22,1.31-1.71,3-1.58,3.94.31s2,3.88,2.92,5.85a1.37,1.37,0,0,0,1.49.89,21.6,21.6,0,0,1,3.86.06A7.17,7.17,0,0,1,92,36.21c-.11.32-.23.63-.34.94,4.89,3.12,5.81,5.57,4,10.63a8.67,8.67,0,0,1,4.55,4.92,8.51,8.51,0,0,1-.6,6.8c1.08,0,2,0,3,0a2,2,0,0,1,2.24,2.24c0,1.92,0,3.84,0,6h1.41c4.26,0,8.52,0,12.78,0a10.25,10.25,0,0,1,10.6,10.52q0,17.18,0,34.36A10.26,10.26,0,0,1,119,123.1c-4.22,0-8.44,0-12.66,0ZM34.58,63.6c0,.42,0,.63,0,.85q0,35.25,0,70.5c0,1.84.74,2.51,2.75,2.51H97.84c2.18,0,2.82-.64,2.82-2.84v-71H92.88c-1.84,0-2.55.73-2.55,2.59,0,3.54,0,7.09,0,10.64a7.17,7.17,0,0,1-7.09,7.28,7.39,7.39,0,0,1-7.36-7.24c0-.49,0-1,0-1.56l-.81.22a7.29,7.29,0,0,1-9.44-6,21.32,21.32,0,0,1-.08-3.2c0-2.11-.66-2.77-2.76-2.77H34.58ZM75.51,24.41c-1.36,1.8-2.63,3.41-3.82,5.08a2.89,2.89,0,0,1-2.61,1.3c-4.26,0-8.52,0-12.78,0a3.08,3.08,0,0,0-3.16,2.92A3.12,3.12,0,0,0,56,36.92c1.56.2,2.38,1,2.3,2.2S57.31,41,55.73,41h-9.3c-2.12,0-3.48,1.09-3.61,2.85s1.06,3,3.16,3.31a2.08,2.08,0,0,1,2,2.11,2,2,0,0,1-2.11,2c-1,0-2,0-3,0a4.15,4.15,0,0,0-3.69,2.19,4,4,0,0,0,3.76,6c6.8,0,13.6,0,20.39,0a6.15,6.15,0,0,1,6.31,6.24c0,.94,0,1.88,0,2.82a3.16,3.16,0,0,0,1.46,2.7,2.8,2.8,0,0,0,3.05.19,3.19,3.19,0,0,0,1.7-3.08c0-1.77.7-2.69,2-2.71S80,66.6,80,68.42c0,2.69,0,5.38,0,8.07A3.26,3.26,0,0,0,83.14,80c1.82,0,3-1.42,3-3.54,0-3.42,0-6.84,0-10.25,0-4.06,2.28-6.48,6.33-6.73a4.1,4.1,0,0,0-.09-8.19c-.9,0-1.8,0-2.71,0-1.54,0-2.46-.75-2.5-2s.76-1.94,2.25-2.12A3.07,3.07,0,0,0,89.16,41c-1.21,0-2.41,0-3.62,0-1.47,0-2.36-.73-2.44-1.92s.75-2,2.18-2.18A3.08,3.08,0,1,0,85,30.78c-1.46,0-2.93-.06-4.39,0a2.55,2.55,0,0,1-2.71-1.7C77.18,27.58,76.38,26.12,75.51,24.41ZM104.85,78h12c1.69,0,2.45.75,2.45,2.42q0,15,0,30c0,1.74-.75,2.46-2.54,2.47H106.13c-.42,0-.83,0-1.24.06V119c5,0,9.89.08,14.79,0a6,6,0,0,0,5.76-6.1q0-17.43,0-34.86a6.13,6.13,0,0,0-6.23-6.18c-2.28,0-4.56,0-6.84,0h-7.52Zm0,30.7H115V82.16H104.85Z"/><path class="cls-1" d="M38.78,110.81h3.93v8.1H38.78Z"/><path class="cls-1" d="M42.74,129.19h-4v-6h4Z"/><path class="cls-1" d="M80,32.93v3.92h-4V32.93Z"/><path class="cls-1" d="M67.49,39H63.57V35h3.92Z"/><path class="cls-1" d="M53.19,47.09V43.15h4v3.94Z"/><path class="cls-1" d="M67.71,43.11h3.93v4H67.71Z"/><path class="cls-1" d="M78,49.17v-4h4v4Z"/><path class="cls-1" d="M59.39,53.28v-4h4v4Z"/><path class="cls-1" d="M55.15,53.41v3.94h-4V53.41Z"/><path class="cls-1" d="M75.8,57.39h-4v-4h4Z"/><path class="cls-1" d="M84.2,53.4h4v4h-4Z"/></svg>