<svg id="Layer_8" data-name="Layer 8" xmlns="http://www.w3.org/2000/svg" viewBox="0 0 160 160"><defs><style>.cls-1{fill:#33140a;}.cls-2{fill:none;stroke:#33140a;stroke-miterlimit:10;stroke-width:3px;}</style></defs><path class="cls-1" d="M93.07,69c-1.49,2.45-1.8,2.51-3.39.62,1.31-1.14,2.63-2.27,3.91-3.39L102.1,73c.66-.89,1.38-2,2.21-3,1.09-1.28,2.28-1.37,3.53-.12q15.6,15.62,31.22,31.2c1.19,1.19,1.36,2.28.09,3.52-2.67,2.62-5.35,5.24-7.94,7.94-1.35,1.42-2.31,1.42-3.73,0C120.28,105.2,113,98,105.7,90.74q-4.45-4.44-8.89-8.89c-1.87-1.89-1.87-2.47-.09-4.28,2.56-2.6,2.57-2.61,0-5.18C95.57,71.28,94.39,70.21,93.07,69Zm43.86,33.51a24.35,24.35,0,0,1-2.82-2c-8.87-8.83-17.7-17.7-26.59-26.51-.47-.47-1.76-.87-2.09-.6-2.27,1.89-4.38,4-6.45,5.9l30.44,30.47Z"/><circle class="cls-2" cx="75.18" cy="46.61" r="28.08"/><path class="cls-1" d="M81.25,27.33c-6.2-1-11.69-.84-16.73,2.27a35.37,35.37,0,0,0-4.15,3.08c-.82.68-1.44,1.2-2.36.19s-.4-1.65.36-2.37c5.84-5.57,12.79-7.6,20.71-6.53a5.18,5.18,0,0,1,2.1.45,2.84,2.84,0,0,1,1.26,1.83C82.47,26.66,81.47,27.15,81.25,27.33Z"/><path class="cls-1" d="M92.84,32.26c-.15.2-.39.8-.83,1a1.55,1.55,0,0,1-1.35-.21c-1.75-1.24-3.47-2.52-5.12-3.88a1.33,1.33,0,0,1,.5-2.46C87.61,26.27,92.87,30.27,92.84,32.26Z"/><path class="cls-1" d="M95.85,135.71c-6-4.66-11.88-9.22-17.77-13.75a34.63,34.63,0,0,0-13.17-6.69c-2.41-.57-3.73.31-3.55,2.46.23,2.73.53,5.77,1.88,8,4.94,8.32,12.75,12.5,22.19,13.56A11.8,11.8,0,0,0,95.85,135.71Z"/><path class="cls-1" d="M142.25,128.8l-8.71-.78c-7.88-.71-15.74-1.66-23.64-2-2.37-.1-6.35.94-6.91,2.45-1.16,3.12,1.87,5.49,4.25,7.51.14.12.36.13.52.23,7,4.47,14.6,4.82,22.32,2.87C135.5,137.72,140.21,135,142.25,128.8Z"/><path class="cls-1" d="M97.49,131.48c-.07-8.33-7.59-16.13-18.34-19.76-4.81-1.63-9.86-1.53-11.26.28C79.55,115.42,86.83,125.61,97.49,131.48Z"/><path class="cls-1" d="M54.24,120.59c-2.79-4.34-10.87-6-18.7-4-8.09,2-15.34,7.08-15.68,11.15C30.56,121.79,42.82,123.76,54.24,120.59Z"/><path class="cls-1" d="M140.75,124.4c-1.7-4.94-9.24-8-15.63-8.51-7.36-.58-14.21.9-19.71,6.43C117.35,119.39,128.76,125,140.75,124.4Z"/><path class="cls-1" d="M95.85,135.71a11.8,11.8,0,0,1-10.42,3.62c-9.44-1.06-17.25-5.24-22.19-13.56-1.35-2.27-1.65-5.31-1.88-8-.18-2.15,1.14-3,3.55-2.46A34.63,34.63,0,0,1,78.08,122C84,126.49,89.83,131.05,95.85,135.71Z"/><path class="cls-1" d="M142.25,128.8c-2,6.22-6.75,8.92-12.17,10.29-7.72,1.95-15.33,1.6-22.32-2.87-.16-.1-.38-.11-.52-.23-2.38-2-5.41-4.39-4.25-7.51.56-1.51,4.54-2.55,6.91-2.45,7.9.33,15.76,1.28,23.64,2Z"/><path class="cls-1" d="M97.49,131.48c-10.66-5.87-17.94-16.06-29.6-19.48,1.4-1.81,6.45-1.91,11.26-.28C89.9,115.35,97.42,123.15,97.49,131.48Z"/><path class="cls-1" d="M54.24,120.59c-11.42,3.17-23.68,1.2-34.38,7.1.34-4.07,7.59-9.15,15.68-11.15C43.37,114.62,51.45,116.25,54.24,120.59Z"/><path class="cls-1" d="M140.75,124.4c-12,.58-23.4-5-35.34-2.08,5.5-5.53,12.35-7,19.71-6.43C131.51,116.39,139.05,119.46,140.75,124.4Z"/><path class="cls-1" d="M57.46,123.55a15.46,15.46,0,0,1-.73,4.16,16.72,16.72,0,0,1-5,7.33,23.93,23.93,0,0,1-10,5.13,32,32,0,0,1-12.58,1.1c-2.66-.32-8.38-1-10.55-4.6a3.93,3.93,0,0,1-.65-3.1,4.1,4.1,0,0,1,2.53-2.16c13.54-5.33,18-6,18-6C43.66,124.65,50.08,123.92,57.46,123.55Z"/><path class="cls-1" d="M37.07,109.11a11.22,11.22,0,0,0,7.84,4.22c6.66,1,12.78-.82,18.39-4.16,4.29-2.56,8.18-5.84,9.45-11,.42-1.71-.12-3.66-.22-5.5-1.7.15-3.63-.16-5,.55A70.56,70.56,0,0,0,57.92,99C51.7,103.46,46.2,109.22,37.07,109.11Z"/><path class="cls-1" d="M68.26,88.86l-.07-.77A32.87,32.87,0,0,0,64.51,87c-7.24-1.27-13.85.66-19.87,4.5-4.23,2.71-7.78,6.16-9,11.41-.43,1.94.38,3,2.12,2.47,3.37-1,6.92-1.91,9.85-3.74C54.52,97.37,60.05,91,68.26,88.86Z"/><path class="cls-1" d="M37.07,109.11c9.13.11,14.63-5.65,20.85-10.1a70.56,70.56,0,0,1,9.56-5.8c1.42-.71,3.35-.4,5-.55.1,1.84.64,3.79.22,5.5-1.27,5.17-5.16,8.45-9.45,11-5.61,3.34-11.73,5.15-18.39,4.16A11.22,11.22,0,0,1,37.07,109.11Z"/><path class="cls-1" d="M68.26,88.86c-8.21,2.16-13.74,8.51-20.6,12.78-2.93,1.83-6.48,2.74-9.85,3.74-1.74.52-2.55-.53-2.12-2.47,1.17-5.25,4.72-8.7,9-11.41,6-3.84,12.63-5.77,19.87-4.5a32.87,32.87,0,0,1,3.68,1.09Z"/></svg>