<svg id="Layer_1" data-name="Layer 1" xmlns="http://www.w3.org/2000/svg" viewBox="0 0 160 160"><defs><style>.cls-1{fill:#dabe99;}</style></defs><path class="cls-1" d="M88.87,56.82c-4.83,1.71-9.15,3.7-13.71,4.74-9.24,2.13-18.57,1.39-27.8-.38C35.93,59,24.53,56.67,13.11,54.45c-3.46-.68-4-1.69-1.81-4.15C20.42,40,31.24,31.76,44.67,27.42c15.66-5.05,31-4,45.6,4a8.8,8.8,0,0,0,1.21.45,28.86,28.86,0,0,1,9.13-15.25c.81-.69,2.15-.81,3.25-1.19.26,1.09.89,2.24.73,3.27-.79,5-1.78,10-2.79,15.53,2.41-.89,4.16-1.62,6-2.2,13.21-4.3,24.61-.8,34.74,7.61a60.2,60.2,0,0,1,6.73,6.82,3.51,3.51,0,0,1,.67,3c-.2.59-1.67,1-2.62,1.11-6.52,1-13,2.08-19.59,2.92-7.33.95-14.61.92-21.24-2.85-2-1.17-3.85-2.72-6.16-4.38A15.7,15.7,0,0,0,99.87,50c.91,6.35,1.47,12.79,3.08,19,2.85,10.92,6.86,21.61,6,33.09a35,35,0,0,0,1.21,11.43c2,7.81-1.87,14-7.51,19.1-6.89,6.29-15.47,9.41-24.7,11-12.78,2.19-25,.69-36.22-5.81-8.92-5.14-12.63-13.59-9.75-23.08,1.84-6,6.44-10.31,11.84-13.56C55.88,93.93,69.07,91.71,83,94c4.83.81,9.52,2.35,14.57,3.62C97.57,83.5,90.34,70.62,88.87,56.82ZM66.4,140.55c13,0,24.3-3.46,31.95-9.36,11.72-9,10.81-21.58-2-28.84a42.21,42.21,0,0,0-19.43-5.16c-13-.51-25.14,2-35.17,10.54-8.82,7.49-9.18,18.48.46,25.48C49.84,138.79,58.63,140.29,66.4,140.55ZM16.84,50.62a15.66,15.66,0,0,0,1.88.69c7.86,1.69,15.71,3.46,23.61,5,11.27,2.21,22.56,4.23,34.06,1,8.06-2.23,14.13-6.81,19.06-13.76a32,32,0,0,0-3.89.45c-8.25,2.08-16.63,1.65-25,1.12-10.23-.65-20.43-1.2-30.34,2.16-1.4.48-3,.76-3.22-1-.11-.76,1.2-2.17,2.18-2.55,8.61-3.31,17.62-3.43,26.73-3,7,.36,14,.59,21,.46,3.79-.07,7.57-1,11.85-1.65C74.45,22,39.16,25,16.84,50.62Zm86.79-11.51c6.23.23,12,.23,17.76.71,4.6.38,9.15,1.32,13.71,2.1,1.58.27,3,1.21,2.12,2.85-.33.63-2.2.86-3.31.74-4.3-.48-8.56-1.34-12.86-1.74-5.22-.47-10.47-.62-15.71-.89a7.92,7.92,0,0,0-1.6.3A16.15,16.15,0,0,0,112.87,49c10.58,2.65,20.63-.82,31.06-2.1C135.32,34.41,111.18,29.45,103.63,39.11ZM95.8,50.83l-1.28-.33c-.59,1.57-1.87,3.24-1.64,4.69a137.93,137.93,0,0,0,3.5,16.33c2.53,8.79,5,17.56,5.58,26.72.11,1.61,1.22,3.16,1.86,4.74l.93-.29a50.45,50.45,0,0,0-1.36-16.78C100.74,74.24,95.74,63.05,95.8,50.83Zm1.77-15c.57-3.71,1.08-7.09,1.66-10.91-3.56,3.75-4.54,9-1.66,10.94Z"/></svg>