<svg id="Layer_17" data-name="Layer 17" xmlns="http://www.w3.org/2000/svg" viewBox="0 0 160 160"><defs><style>.cls-1{fill:#33140a;}</style></defs><path class="cls-1" d="M132.06,108.19c-1,7.5-5.88,12.38-12.34,12.62-5,.18-12.24-4-12.84-12.55H57.45a12.93,12.93,0,0,1-5.17,9.94,12.06,12.06,0,0,1-8.07,2.58A13.06,13.06,0,0,1,32.36,108.2H26.93a7.57,7.57,0,0,1-7.73-7.75q0-27.11-.08-54.21a7.5,7.5,0,0,1,7.7-7.75q32.09,0,64.17,0a7.47,7.47,0,0,1,7.58,7.59c0,1.78,0,3.55,0,5.46h21a8.16,8.16,0,0,1,6.6,3q6.54,7.83,13.07,15.68a8.21,8.21,0,0,1,1.89,5.41c0,8.21,0,16.42,0,24.63a7.62,7.62,0,0,1-7.85,7.9Zm-37.92-24c0-.39.07-.68.07-1q0-18.69,0-37.38c0-2.19-.86-3-3.2-3H26.6c-2.31,0-3.13.84-3.13,3.18q0,18.56,0,37.12c0,.32.05.65.08,1Zm.16,4.48H23.63v5.21c.15.08.23.15.3.15,1.15,0,2.3,0,3.45,0,1.63,0,2.62.83,2.66,2.13s-1,2.2-2.69,2.22c-1.22,0-2.44,0-3.8,0,0,.93,0,1.69,0,2.44.06,2.14.95,3,3.07,3,1.87,0,3.74,0,5.61,0A1.49,1.49,0,0,0,33.8,103c2.42-4.36,6-7,11.15-7s8.64,2.68,11,7a1.52,1.52,0,0,0,1.54.95q17.67,0,35.34,0H94.3Zm4.45-9.79v25c2.72,0,5.27,0,7.81,0a1.82,1.82,0,0,0,1.94-1.15C113.18,94,124.78,93.54,130,102a3.44,3.44,0,0,0,3.71,1.91c2.16-.15,3.1-1,3.11-3.15,0-3.74,0-7.48,0-11.22,0-.28-.06-.57-.09-.93h-1.46c-2,0-4.08,0-6.12,0a2.09,2.09,0,0,1-2.13-2,2.17,2.17,0,0,1,1.74-2.33,6.29,6.29,0,0,1,1.15,0h6.85V78.84Zm38-4.51c-.4-.59-.61-1-.9-1.34-4.32-5.2-8.66-10.38-13-15.58a4,4,0,0,0-3.3-1.55c-6.63,0-13.26,0-19.89,0-.37,0-.73.06-1,.09V74.33Zm-92,42.11a8.1,8.1,0,1,0,.11-16.2,8.1,8.1,0,1,0-.11,16.2Zm74.67,0a8.1,8.1,0,1,0-8.15-8A7.75,7.75,0,0,0,119.49,116.44Z"/><path class="cls-1" d="M111.68,83.26v6.28h-4.22V83.26Z"/><path class="cls-1" d="M40.51,69.78c-.3-6.54,3.16-10.73,7.75-13.92C54.79,51.31,62,49,70.16,50.66c.18,0,.39,0,.56,0,2.94,1.06,6.61,2.21,6.63,5.53,0,1.61-3.35,4-5.6,4.74-7.51,2.47-15.2,4.36-22.82,6.47Z"/><path class="cls-1" d="M43.46,73.37c11-4.78,23.66-3.57,33.79-10.53-3.18,7.11-9.07,10.91-16.16,13C54.94,77.6,46.8,77.39,43.46,73.37Z"/></svg>