<svg id="Layer_25" data-name="Layer 25" xmlns="http://www.w3.org/2000/svg" viewBox="0 0 160 160"><defs><style>.cls-1{fill:#33140a;}</style></defs><path class="cls-1" d="M12.44,60.61c0-23.49,17-42.26,39.05-44.52A42.84,42.84,0,0,1,78.88,22.3a1.83,1.83,0,0,0,2.24,0A43.55,43.55,0,0,1,147,53c2.1,14-1.69,26.46-11.69,36.61-17.61,17.87-35.41,35.55-53.13,53.3-1.65,1.66-2.72,1.65-4.4,0L25.26,90.24A42.42,42.42,0,0,1,12.44,60.61Zm67.7,77.83c.5-.57.87-1,1.29-1.46q24.15-24.1,48.3-48.24a57.79,57.79,0,0,0,5.67-6.64A38.86,38.86,0,0,0,82.12,27.16c-1.38.93-2.55,1.2-4.05.21-14.92-9.9-32.47-9.47-46.48,1.71C20.64,37.82,16,49.58,17.28,63.56c.91,9.6,5.32,17.55,12.1,24.3q24.76,24.67,49.49,49.37C79.21,137.58,79.57,137.9,80.14,138.44Z"/><path class="cls-1" d="M104.34,77.51c-.24,8.44-2.1,16.37-7,23.37-3.52,5-8.07,8.57-14.21,9.65-7,1.23-12.72-1.36-17.51-6.27-5.27-5.39-8-12.05-9.17-19.37-1.66-10.58,0-20.57,5.76-29.73a24.29,24.29,0,0,1,8.67-8.36c7.61-4.3,16.6-2.9,23.23,3.68,5.66,5.62,8.51,12.63,9.67,20.39C104.08,73.06,104.15,75.29,104.34,77.51ZM80.51,106.09c.68,0,1-.06,1.26-.1,5.29-.87,9-4,12-8.28,4.12-6,5.7-12.77,5.71-19.92,0-8.17-2.08-15.74-7.28-22.22a16.54,16.54,0,0,0-8-5.72c-.77,1.48-1.4,2.94-2.25,4.25-2.25,3.43-2.29,6.55,0,9.93A12.66,12.66,0,0,1,82,78.76c-2.3,3.44-2.3,6.52,0,9.91a12.67,12.67,0,0,1,0,14.86C81.53,104.25,81.13,105,80.51,106.09Zm-4.77-.86c.92-1.68,1.66-3.18,2.54-4.59,1.9-3,2-6.39-.09-9.16C74.77,87.07,75,80.47,78,76.2c2.29-3.33,2.18-6.45-.09-9.78a12.69,12.69,0,0,1,0-14.74c.48-.72.89-1.49,1.38-2.32a11.91,11.91,0,0,0-6.72,2,21.48,21.48,0,0,0-8.44,9.91,38.72,38.72,0,0,0,.65,34A20,20,0,0,0,75.74,105.23Z"/></svg>