<svg id="Layer_15" data-name="Layer 15" xmlns="http://www.w3.org/2000/svg" viewBox="0 0 160 160"><defs><style>.cls-1{fill:#33140a;}</style></defs><path class="cls-1" d="M32.19,62.4H54.61q29.42,0,58.84,0A14.39,14.39,0,0,1,119.21,90a18,18,0,0,1-9.27,1.13c-3.07-.31-4.46.68-5.67,3.67-3.36,8.29-9.37,14.38-17.31,18.52a5.29,5.29,0,0,0-1.67,1.21h17.92v3.88H36.51v-3.77H55c-.85-.53-1.21-.78-1.59-1C40.33,106.81,33,96.08,32.25,81.28,31.92,75.08,32.19,68.85,32.19,62.4Zm3.69,4.1c.19,6.27-.13,12.43.68,18.43,2,15.08,14,26.25,29.62,28.42C80,115.27,94.33,107,100.52,93.87c4.15-8.8,2.82-18.08,3.09-27.37Zm71.44,20.73c1.88,0,4.14,0,6.41,0a10.33,10.33,0,0,0,10.07-8.82c.71-5.31-2.26-10.29-7.35-11.49-2.8-.66-5.81-.46-9.13-.68Z"/><path class="cls-1" d="M93.39,126.91v3.68H46.32v-3.68Z"/><path class="cls-1" d="M51.9,29.47H56a44.44,44.44,0,0,1-2.07,4.43c-1.22,2-1.3,2.93.05,4.87,2.18,3.1,2.16,5.9,0,9-.48.7-.84,1.47-1.32,2.32h-4.1a41.4,41.4,0,0,1,2.1-4.44c1.25-2,1.33-2.89-.06-4.86-2.2-3.11-2.18-5.89,0-9.05C51.06,31.1,51.42,30.32,51.9,29.47Z"/><path class="cls-1" d="M87.06,29.48h4A33.23,33.23,0,0,1,89,33.93a3.71,3.71,0,0,0,0,4.73c2.31,3.22,2.28,6,.08,9.18-.48.7-.83,1.47-1.28,2.28H83.7a38.28,38.28,0,0,1,2-4.31c1.37-2.18,1.45-2.93,0-5a7.09,7.09,0,0,1-.09-8.9C86.12,31.18,86.54,30.36,87.06,29.48Z"/><path class="cls-1" d="M66.08,50.16a32.15,32.15,0,0,1,2.14-4.45,3.65,3.65,0,0,0,0-4.73c-2.33-3.27-2.29-6,0-9.35,1.67-2.4,1.67-2.4,5.13-2.06a29.15,29.15,0,0,1-1.8,4.13c-1.47,2.36-1.55,2.93,0,5.15a7.06,7.06,0,0,1,0,8.91c-.11.15-.29.28-.33.44C70.58,50.86,68.57,50.22,66.08,50.16Z"/></svg>