<svg id="Layer_5" data-name="Layer 5" xmlns="http://www.w3.org/2000/svg" viewBox="0 0 160 160"><defs><style>.cls-1{fill:#33140a;}</style></defs><path class="cls-1" d="M78,63.62c-14.92.66-28.08-12.27-28-27.74a27.92,27.92,0,0,1,55.83-.18C106,51.15,92.93,64.21,78,63.62Zm-.16-3.77A23.94,23.94,0,1,0,54,35.77,24.28,24.28,0,0,0,77.83,59.85Z"/><path class="cls-1" d="M38.45,33.85a21.53,21.53,0,0,1,4.33.08,2.7,2.7,0,0,1,1.75,1.82c0,.65-.94,1.92-1.54,2a77.54,77.54,0,0,1-9.52,0c-.63,0-1.81-1.46-1.67-1.83a3.38,3.38,0,0,1,2-1.93,22.84,22.84,0,0,1,4.61-.09Z"/><path class="cls-1" d="M47.42,51c.66.63,1.49,1,1.61,1.63s0,2-.48,2.28a89.13,89.13,0,0,1-8.16,4.82,2.53,2.53,0,0,1-2.19-.7c-.39-.4-.49-1.83-.19-2C41,55,44.12,53.1,47.42,51Z"/><path class="cls-1" d="M117.34,37.86a17.27,17.27,0,0,1-4-.08c-.84-.21-1.48-1.21-2.2-1.85.76-.7,1.47-1.93,2.28-2a45.78,45.78,0,0,1,8.36,0c.81.08,1.53,1.29,2.29,2-.7.64-1.32,1.69-2.12,1.85a23.47,23.47,0,0,1-4.6.09Z"/><path class="cls-1" d="M76,75.55A20.06,20.06,0,0,1,76,71.23c.19-.83,1.21-1.46,1.86-2.19.68.71,1.87,1.38,1.93,2.14a55.64,55.64,0,0,1,0,8.66c-.06.75-1.22,1.42-1.88,2.12-.66-.78-1.68-1.48-1.92-2.38a16.38,16.38,0,0,1-.08-4Z"/><path class="cls-1" d="M118.84,58.6c-1.56.48-2.87,1.37-3.61,1a52.81,52.81,0,0,1-7.68-4.5,3,3,0,0,1-.71-2.65c.1-.44,1.77-1,2.32-.77,2.73,1.39,5.35,3,8,4.64C117.61,56.66,117.89,57.33,118.84,58.6Z"/><path class="cls-1" d="M62.64,66.45c-2,3.17-3.74,6.21-5.7,9.14a2.13,2.13,0,0,1-2.07.09,2.4,2.4,0,0,1-.71-2.15c1.49-2.88,3.14-5.69,4.88-8.43a2.2,2.2,0,0,1,2-.45C61.62,64.85,62,65.68,62.64,66.45Z"/><path class="cls-1" d="M103,74.87a7.14,7.14,0,0,1-2.33,1A3.38,3.38,0,0,1,98.18,75a76.32,76.32,0,0,1-4.32-7.76A2.57,2.57,0,0,1,94.35,65c.34-.39,1.75-.55,1.93-.29C98.39,67.72,100.36,70.83,103,74.87Z"/><path class="cls-1" d="M95.85,144.31c-6-4.65-11.88-9.22-17.77-13.75a34.63,34.63,0,0,0-13.17-6.69c-2.41-.56-3.73.31-3.55,2.46.23,2.73.53,5.77,1.88,8,4.94,8.32,12.75,12.5,22.19,13.56A11.8,11.8,0,0,0,95.85,144.31Z"/><path class="cls-1" d="M142.25,137.4l-8.71-.78c-7.88-.71-15.74-1.66-23.64-2-2.37-.1-6.35.94-6.91,2.45-1.16,3.12,1.87,5.49,4.25,7.52.14.11.36.12.52.22,7,4.47,14.6,4.82,22.32,2.87C135.5,146.33,140.21,143.62,142.25,137.4Z"/><path class="cls-1" d="M121.64,102.21a11.24,11.24,0,0,0-7.29-5.11c-6.49-1.76-12.79-.69-18.75,2-4.56,2-8.81,4.84-10.68,9.82-.62,1.65-.31,3.65-.43,5.49,1.71.05,3.59.59,5.08.05a71.76,71.76,0,0,0,10.18-4.63C106.45,106.1,112.59,101,121.64,102.21Z"/><path class="cls-1" d="M88.29,118.66l0,.77A34.12,34.12,0,0,0,91.79,121c7,2.11,13.83,1,20.26-2.14,4.52-2.19,8.45-5.2,10.23-10.28.66-1.87,0-3-1.82-2.7-3.46.6-7.09,1.09-10.22,2.55C102.93,111.82,96.69,117.48,88.29,118.66Z"/><path class="cls-1" d="M97.49,140.08c-.07-8.33-7.59-16.13-18.34-19.76-4.81-1.63-9.86-1.53-11.26.28C79.55,124,86.83,134.21,97.49,140.08Z"/><path class="cls-1" d="M54.24,129.19c-2.79-4.33-10.87-6-18.7-4-8.09,2-15.34,7.07-15.68,11.14C30.56,130.39,42.82,132.36,54.24,129.19Z"/><path class="cls-1" d="M140.75,133c-1.7-4.94-9.24-8-15.63-8.51-7.36-.58-14.21.9-19.71,6.44C117.35,128,128.76,133.58,140.75,133Z"/><path class="cls-1" d="M95.85,144.31a11.8,11.8,0,0,1-10.42,3.62c-9.44-1.06-17.25-5.24-22.19-13.56-1.35-2.27-1.65-5.31-1.88-8-.18-2.15,1.14-3,3.55-2.46a34.63,34.63,0,0,1,13.17,6.69C84,135.09,89.83,139.66,95.85,144.31Z"/><path class="cls-1" d="M142.25,137.4c-2,6.22-6.75,8.93-12.17,10.29-7.72,1.95-15.33,1.6-22.32-2.87-.16-.1-.38-.11-.52-.22-2.38-2-5.41-4.4-4.25-7.52.56-1.51,4.54-2.55,6.91-2.45,7.9.33,15.76,1.28,23.64,2Z"/><path class="cls-1" d="M121.64,102.21c-9-1.18-15.19,3.89-21.89,7.59a71.76,71.76,0,0,1-10.18,4.63c-1.49.54-3.37,0-5.08-.05.12-1.84-.19-3.84.43-5.49,1.87-5,6.12-7.78,10.68-9.82,6-2.66,12.26-3.73,18.75-2A11.24,11.24,0,0,1,121.64,102.21Z"/><path class="cls-1" d="M88.29,118.66c8.4-1.18,14.64-6.84,21.95-10.28,3.13-1.46,6.76-1.95,10.22-2.55,1.8-.31,2.48.83,1.82,2.7-1.78,5.08-5.71,8.09-10.23,10.28-6.43,3.11-13.22,4.25-20.26,2.14a34.12,34.12,0,0,1-3.53-1.52Z"/><path class="cls-1" d="M97.49,140.08C86.83,134.21,79.55,124,67.89,120.6c1.4-1.81,6.45-1.91,11.26-.28C89.9,124,97.42,131.75,97.49,140.08Z"/><path class="cls-1" d="M54.24,129.19c-11.42,3.17-23.68,1.2-34.38,7.1.34-4.07,7.59-9.15,15.68-11.14C43.37,123.22,51.45,124.86,54.24,129.19Z"/><path class="cls-1" d="M140.75,133c-12,.58-23.4-5-35.34-2.07,5.5-5.54,12.35-7,19.71-6.44C131.51,125,139.05,128.06,140.75,133Z"/><path class="cls-1" d="M57.46,132.16a15.39,15.39,0,0,1-.73,4.15,16.72,16.72,0,0,1-5,7.33,23.81,23.81,0,0,1-10,5.13,31.84,31.84,0,0,1-12.58,1.1c-2.66-.31-8.38-1-10.55-4.6a3.93,3.93,0,0,1-.65-3.1A4.05,4.05,0,0,1,20.41,140c13.54-5.33,18-6,18-6C43.66,133.25,50.08,132.52,57.46,132.16Z"/><path class="cls-1" d="M37.07,117.72a11.2,11.2,0,0,0,7.84,4.21c6.66,1,12.78-.82,18.39-4.16,4.29-2.56,8.18-5.84,9.45-11,.42-1.71-.12-3.66-.22-5.5-1.7.15-3.63-.16-5,.55a70.56,70.56,0,0,0-9.56,5.8C51.7,112.06,46.2,117.82,37.07,117.72Z"/><path class="cls-1" d="M68.26,97.46l-.07-.77a32.87,32.87,0,0,0-3.68-1.09c-7.24-1.27-13.85.66-19.87,4.51-4.23,2.7-7.78,6.15-9,11.4-.43,1.94.38,3,2.12,2.47,3.37-1,6.92-1.91,9.85-3.73C54.52,106,60.05,99.62,68.26,97.46Z"/><path class="cls-1" d="M37.07,117.72c9.13.1,14.63-5.66,20.85-10.11a70.56,70.56,0,0,1,9.56-5.8c1.42-.71,3.35-.4,5-.55.1,1.84.64,3.79.22,5.5-1.27,5.17-5.16,8.45-9.45,11-5.61,3.34-11.73,5.15-18.39,4.16A11.2,11.2,0,0,1,37.07,117.72Z"/><path class="cls-1" d="M68.26,97.46c-8.21,2.16-13.74,8.52-20.6,12.79-2.93,1.82-6.48,2.73-9.85,3.73-1.74.52-2.55-.53-2.12-2.47,1.17-5.25,4.72-8.7,9-11.4,6-3.85,12.63-5.78,19.87-4.51a32.87,32.87,0,0,1,3.68,1.09Z"/></svg>