<svg id="Layer_28" data-name="Layer 28" xmlns="http://www.w3.org/2000/svg" viewBox="0 0 160 160"><defs><style>.cls-1{fill:#33140a;}</style></defs><path class="cls-1" d="M25,49.56A23.73,23.73,0,1,1,48.57,73.41,23.68,23.68,0,0,1,25,49.56ZM48.67,29.9A19.78,19.78,0,1,0,68.46,49.72,19.74,19.74,0,0,0,48.67,29.9Z"/><path class="cls-1" d="M136.29,113.67a23.73,23.73,0,1,1-23.61-23.85A23.68,23.68,0,0,1,136.29,113.67Zm-3.95,0a19.78,19.78,0,1,0-19.87,19.7A19.82,19.82,0,0,0,132.34,113.63Z"/><path class="cls-1" d="M61.08,114.67c-.25-1.8-.58-3.58-.7-5.37a2.9,2.9,0,0,1,.68-2c.71-.77,1.68-.53,2.68.46l11.45,11.28a15.85,15.85,0,0,1,2.07,2.11,2.75,2.75,0,0,1,.52,2.08A2.33,2.33,0,0,1,76,124.4c-6.47.08-12.94,0-19.4,0a1.76,1.76,0,0,1-1.91-1.24,1.85,1.85,0,0,1,.76-2.17c1.15-.86,2.29-1.74,3.27-2.49-2.68-2.26-5.49-4.3-7.9-6.75A42.39,42.39,0,0,1,38.29,81.45a2,2,0,0,1,1.93-2.26,2,2,0,0,1,2,2.21,39.41,39.41,0,0,0,18.11,33,3.58,3.58,0,0,0,.42.25C60.83,114.7,60.92,114.67,61.08,114.67Z"/><path class="cls-1" d="M103.23,43.87a43.51,43.51,0,0,1,22.88,34.31c.13,1.23.21,2.46.23,3.7a2,2,0,0,1-1.9,2.26c-1.23,0-2-.79-2-2.25a39.44,39.44,0,0,0-7.82-23.22A38.8,38.8,0,0,0,103.42,48.5c-.21-.13-.43-.22-.78-.39.24,1.37.45,2.62.67,3.87.15.82.11,1.72-.74,2a2.64,2.64,0,0,1-2-.3c-4.82-3.44-9.58-7-14.37-10.46-.69-.5-1.27-1.16-.85-1.95A2.64,2.64,0,0,1,87,40.07c5.71-1,11.43-2,17.15-2.94.87-.15,1.76-.28,2.31.66s0,1.63-.49,2.35C105,41.32,104.19,42.53,103.23,43.87Z"/><path class="cls-1" d="M49.94,65.57H47.38c0-.37-.08-.68-.1-1a2.42,2.42,0,0,0-2-2.7,6.91,6.91,0,0,1-4.39-3.72,2.38,2.38,0,1,1,4.33-1.89,3.23,3.23,0,0,0,3.46,2.38,2.9,2.9,0,0,0,3-1.8,3.32,3.32,0,0,0-1.12-3.76A19.41,19.41,0,0,0,48.34,52a32.4,32.4,0,0,1-4.88-2.59,6.52,6.52,0,0,1,1.15-10.93c2.69-1.36,2.69-1.36,3.18-4.31h2.29c.05.05.15.12.15.17-.22,2.24.75,3.51,2.85,4.42a7.35,7.35,0,0,1,2.77,3,2.3,2.3,0,0,1-1.08,3.42,2.38,2.38,0,0,1-3.27-1.52,2.82,2.82,0,0,0-2.77-2,2.56,2.56,0,0,0-2.64,1.64,2.94,2.94,0,0,0,.74,3.39,14.66,14.66,0,0,0,2.34,1.35c1.18.57,2.44,1,3.59,1.64a6.62,6.62,0,0,1,3.79,6.66A6.2,6.2,0,0,1,51.78,62C50,62.57,49.9,64,49.94,65.57Z"/><path class="cls-1" d="M125.4,113.54c-.19,4.47-1.23,8.86-4.24,12.58a10.64,10.64,0,0,1-8.36,4.38c-4.31,0-7.39-2.32-9.68-5.72-4.37-6.49-4.17-16.91.34-23.28a11.43,11.43,0,0,1,8.41-5.26c4.17-.41,7.21,1.57,9.62,4.72C124.27,104.61,125.32,108.83,125.4,113.54Zm-14.91-12.82c-3.54,1-6.22,5.74-6.58,11.43-.38,6,2.26,11.94,6.13,13.61l1-1.66a3.14,3.14,0,0,0-.07-3.6,7,7,0,0,1,.11-8.39,2.8,2.8,0,0,0,.17-3.35A7.59,7.59,0,0,1,110.49,100.72Zm4.29,25.13c4.31-1.62,6.87-7,6.62-13.62-.2-5.28-3-10.39-6.25-11.34l-1,1.55a3.08,3.08,0,0,0,0,3.59,7.1,7.1,0,0,1,.06,8.52,3,3,0,0,0-.08,3.58A7.08,7.08,0,0,1,114.78,125.85Z"/></svg>