<svg id="Layer_30" data-name="Layer 30" xmlns="http://www.w3.org/2000/svg" viewBox="0 0 160 160"><defs><style>.cls-1{fill:#33140a;}</style></defs><path class="cls-1" d="M93.63,94c-27.06.07-44.36-17.86-45-38.8A40.26,40.26,0,0,1,87.51,13.4a39.3,39.3,0,0,1,28.94,10.85A39,39,0,0,1,129.23,53.7a38.94,38.94,0,0,1-11.79,28.53C109.58,90.08,100,93.92,93.63,94Zm23.31-17.15.27-.28a33.49,33.49,0,0,0,4.9-8.26,56.83,56.83,0,0,0,2.11-6.26,21,21,0,0,0,.7-4.74,69.37,69.37,0,0,0-.09-8.41,31.33,31.33,0,0,0-2.42-9.12A35.44,35.44,0,0,0,116,29.54a36.91,36.91,0,0,0-13.1-9.41,33.93,33.93,0,0,0-10-2.6,31.08,31.08,0,0,0-12.09,1c-4.71,1.39-8.57,3.9-10.92,8.38a16.09,16.09,0,0,0-1.51,12.2,18.32,18.32,0,0,0,9.32,11.29,34.68,34.68,0,0,0,8.52,3c4.07,1,8.17,2,12.21,3.11A36.61,36.61,0,0,1,110,62a16.16,16.16,0,0,1,6.77,12.34C116.82,75.15,116.87,76,116.94,76.86ZM61.72,29.78a33.85,33.85,0,0,0-5,7.35A36,36,0,0,0,62.87,79a36.59,36.59,0,0,0,15.31,9.39c.44.14.66,0,.8-.35.42-1.14.87-2.26,1.24-3.41a18.35,18.35,0,0,0,.51-9.91,24.85,24.85,0,0,0-4-8.61,86.27,86.27,0,0,0-8.83-10.25,27.72,27.72,0,0,1-5.39-7.33A22.07,22.07,0,0,1,60.57,42a27,27,0,0,1,.15-7.78C61,32.74,61.37,31.31,61.72,29.78Z"/><path class="cls-1" d="M94.35,51a9.73,9.73,0,1,1,9.74-9.72A9.64,9.64,0,0,1,94.35,51Z"/><path class="cls-1" d="M134.76,134.62c-6.14,5.8-13.07,10.09-21.5,11.55-6,1-11.76.36-16.88-3.22-5.81-4.07-8-9.95-7.94-16.81.08-7.54,2.84-14.19,7.21-20.19,6.31-8.65,14.56-14.53,25.1-17a24.31,24.31,0,0,1,12,.22c8.42,2.34,13.79,9.69,13.82,19,0,8-2.91,14.94-7.58,21.25C137.71,131.29,136.19,132.92,134.76,134.62ZM97.7,138c.52.44.72.65,1,.82,4.35,3.13,9.23,3.53,14.3,2.6,7.15-1.33,13.07-5,18.13-10.05,5.78-5.77,9.66-12.61,10.56-20.86a16.5,16.5,0,0,0-1.6-9.68c-1.59.49-3.07,1.08-4.6,1.4-4,.84-6.25,3-7,7a12.67,12.67,0,0,1-10.37,10.45c-4.07.81-6.25,3-7,7a12.69,12.69,0,0,1-10.47,10.54C99.72,137.41,98.88,137.67,97.7,138Zm-2.77-4c1.84-.53,3.42-1.07,5-1.44,3.47-.79,6-3.08,6.41-6.56.71-5.53,5.56-10,10.65-11,4-.73,6.11-3,6.86-7a12.68,12.68,0,0,1,10.4-10.44c.85-.17,1.68-.43,2.62-.67a12,12,0,0,0-6.16-3.36,21.47,21.47,0,0,0-13,1.05,38.72,38.72,0,0,0-23.55,24.47A20,20,0,0,0,94.93,134Z"/><path class="cls-1" d="M59.71,130.78c-6.14,5.8-13.07,10.09-21.5,11.55-6,1-11.76.36-16.87-3.22-5.81-4.07-8-10-7.95-16.81.09-7.54,2.85-14.2,7.22-20.19,6.3-8.65,14.56-14.53,25.09-17a24.31,24.31,0,0,1,12,.22c8.42,2.34,13.79,9.69,13.83,19,0,8-2.92,15-7.58,21.26C62.67,127.45,61.14,129.08,59.71,130.78Zm-37.06,3.36c.52.44.73.65,1,.82,4.36,3.13,9.23,3.53,14.31,2.59,7.15-1.32,13.06-5,18.12-10,5.78-5.78,9.66-12.61,10.57-20.87A16.48,16.48,0,0,0,65,97c-1.6.49-3.07,1.08-4.6,1.4-4,.84-6.25,3-7,7A12.66,12.66,0,0,1,43,115.85c-4.07.81-6.24,3-7,7A12.69,12.69,0,0,1,25.53,133.4C24.67,133.57,23.83,133.83,22.65,134.14Zm-2.77-4c1.84-.53,3.43-1.07,5.05-1.44,3.46-.8,6-3.08,6.41-6.56.7-5.53,5.55-10,10.64-11,4-.73,6.11-3,6.86-7a12.69,12.69,0,0,1,10.4-10.44c.85-.17,1.69-.43,2.62-.67a12,12,0,0,0-6.16-3.36,21.55,21.55,0,0,0-13,1,38.75,38.75,0,0,0-23.55,24.48A20.09,20.09,0,0,0,19.88,130.16Z"/></svg>