<svg id="Layer_4" data-name="Layer 4" xmlns="http://www.w3.org/2000/svg" viewBox="0 0 160 160"><defs><style>.cls-1{fill:#33140a;}.cls-2{fill:none;stroke:#33140a;stroke-linecap:round;stroke-miterlimit:10;stroke-width:3px;}</style></defs><path class="cls-1" d="M117.48,143.16h13.87c3.13-22.91,6.25-45.81,9.43-69.12H128.16c2.14-2.6,4.07-4,7-3.82a84.68,84.68,0,0,0,9.29,0,2.57,2.57,0,0,0,1.92-1.58c.22-2.59.1-5.21.1-7.67-4.1-1.84-9.52,2-12.67-4.22,4.17.06,7.9-1.08,11.28,1.79.57-.48,1-.93,1.56-1.29,1.84-1.25,3.74-.49,3.81,1.69.13,4.22.07,8.45,0,12.67,0,1.73-.93,2.55-2.7,2.43-.91-.07-1.84,0-3,0-.9,6.41-1.78,12.61-2.65,18.8q-2.91,20.89-5.8,41.79c-.42,3.06-.8,6.14-1.11,9.21-.24,2.35-1.3,3.42-3.79,3.42q-51.42-.07-102.84,0c-2.32,0-3.41-.91-3.7-3.21q-1.83-14.65-3.81-29.29c-1.47-10.77-3-21.54-4.55-32.31-.27-2-.42-3.91-.65-5.87-.2-1.64-.7-2.87-2.8-2.56-2.71.41-3.72-.95-3.63-3.58.11-3.37.14-6.76,0-10.14-.12-2.72,1-3.66,3.66-3.65,12.12.06,24.23,0,36.35,0,1.18,0,2.36-.12,3.76-.19-6.2-15-3.31-27.59,8.88-37.69,8.72-7.23,23.05-7.94,33.06-2a29.57,29.57,0,0,1,13.68,17.42c2.19,7.4,1.53,14.8-2.13,22.37,6,0,13.4,4.34,10.39,4-1.1-.15-2.25,0-3.37,0-5.48-.41-10.63-.34-14.28,5-1.26,1.83-3.7,2.85-6.23,4.69h34.44c-2.11,2.81-3.93,4-7.19,4C88,74,55.5,74,23,74H19.41c3.15,23.14,6.27,46,9.41,69.05H35c-1.14-2.3-3.15-4.74-3.53-7.41-.89-6.17,3.34-9.71,8-12.6a56.8,56.8,0,0,1,6-2.79c-1.07-.94-1.93-1.59-2.68-2.36-4-4.13-4.18-9.58.16-13.36a21.41,21.41,0,0,1,8.69-4.73c6.52-1.53,13-1.11,18.86,2.93,3.13,2.18,6.37,7.23,4.1,11.71-.18.36,0,.89,0,1.58l4.13.27c.15-8.91,6.94-13.43,12.71-15.43,4.93-1.72,9.79-2.18,14.85-.46,7.11,2.42,10.53,9.79,4,17.16a4.9,4.9,0,0,1-1.64.92c4.82,1.57,9.16,2.57,13.14,4.39,3.74,1.72,6.16,4.93,5.93,9.39s-3.24,7.13-6.82,9.24C120,142,119.09,142.37,117.48,143.16ZM106.07,42.83A26,26,0,0,0,80.2,16.58c-14.24-.2-26.06,11.71-26.12,26a26,26,0,1,0,52,.25ZM66.61,70.24c-3.39-2.92-6.38-5.61-9.5-8.13a6.41,6.41,0,0,0-3.49-1.57c-7.6-.14-15.2-.07-22.81-.08H13.57c0,2.53.12,4.87,0,7.18-.14,2.14.68,2.71,2.76,2.69,12.67-.1,25.34-.07,38-.09ZM67,123.09c-2.24,3.63,1.39,9.63,6.23,12.83s13.16,5.43,16.44,1.61C83.57,130.86,72.16,123.55,67,123.09ZM44,111.3c-.28,4.68,6.12,7.7,11.72,8.17,7.35.62,13.75-2.51,15-7.33C61.8,112.26,53,107.9,44,111.3Zm18.31,18.82c-4.92.53-8.94.77-12.88,1.46a65.42,65.42,0,0,0-11.34,2.87c-3.36,1.25-3.29,2.82-.22,4.89a7,7,0,0,0,1.23.59c6.64,2.68,15.91.51,20.53-5C60.78,133.66,61.38,131.92,62.35,130.12Zm60.93,3.19c-3.36-.56-6.55-1.37-9.78-1.58-5-.33-10-.33-15.07-.32-2.18,0-2.53,1.32-1.49,3a7.72,7.72,0,0,0,1.78,2.11c5.86,4.46,12.28,4.42,18.87,2.06C120.14,137.69,122.48,136.34,123.28,133.31ZM108.1,106a16.26,16.26,0,0,0-2.16-1.5c-4.77-2-9.63-1.45-14.24.25-3.78,1.39-7,3.8-8.47,7.91-.85,2.45-.24,3.28,2.23,2.75a21.44,21.44,0,0,0,5.24-1.83C96.12,110.78,100.93,106.68,108.1,106ZM86.79,119.07c7.13,4.81,23.23-2.06,22.4-8.81C100.43,109.62,95.17,117.61,86.79,119.07Zm-9,24.08-12.41-8.34-9.2,8.34Zm-18-16.86c-5-5.1-19.46-1.85-21.74,3.19Zm31.25,7c.71-6-10.15-14.27-17.87-13.3ZM122.91,129c-5.81-6.16-19-7.08-22.31-2.52ZM70.2,108.17c-4.52-5.92-17.33-7.25-22-2.48Zm24.48,30.47L89,143.15h12.71Z"/><rect class="cls-1" x="106.73" y="56.54" width="43.73" height="4.1" rx="1.9"/><rect class="cls-1" x="112.48" y="70.11" width="34.23" height="3.88"/><line class="cls-2" x1="80.07" y1="22.09" x2="80" y2="42.7"/><line class="cls-2" x1="80" y1="42.54" x2="69.71" y2="52.76"/></svg>