<svg id="Layer_22" data-name="Layer 22" xmlns="http://www.w3.org/2000/svg" viewBox="0 0 160 160"><defs><style>.cls-1{fill:#33140a;}</style></defs><path class="cls-1" d="M121.47,141.12h-8.68v-24h-1.4q-21.67,0-43.37,0c-2.71,0-3.3.57-3.3,3.24v22.1c0,2.39-.65,3-3.09,3h-7c-2.39,0-3-.66-3-3.09v-1.23H42.9v-1.59c0-10.46,0-20.92,0-31.37a3.52,3.52,0,0,0-.76-2,23.78,23.78,0,0,1-5.74-15.51c0-7.37,0-14.74,0-22.1V67H32.11c-.8,8.27-7.26,11.54-13.19,10.73V66.91c-.81,0-1.48,0-2.15,0a2.12,2.12,0,0,1-2.23-2.23c0-5.05,0-10.1,0-15.15,0-1.36.9-2,2.06-2.36q11-3.88,21.93-7.82c1.8-.64,3.57-1.35,5.39-1.89a1.45,1.45,0,0,0,1.18-1.76A19.71,19.71,0,0,1,49.3,22.06a19.39,19.39,0,0,1,14.82-7.53c1.09,0,2.18,0,3.27,0a6.54,6.54,0,0,1,0,13.08c-.82,0-1.64,0-2.46,0a6.54,6.54,0,0,0-6.79,6.79c0,.58,0,1.17,0,1.94h5.2c1.09,0,2.18,0,3.28,0a2.25,2.25,0,0,1,2.44,2.59,11,11,0,0,1-8.52,10.23c-.7.15-1.41.25-2.22.39a18.66,18.66,0,0,0,4.31,10.15,19.45,19.45,0,0,0,15.54,7.2q23.6,0,47.19,0a13,13,0,0,1,9.38,3.7A9.58,9.58,0,0,0,142,73.47c1.08,0,2.17,0,3.24,0,1.16,5.53-2.41,12.78-11,13.19.09,1.56.25,3.12.26,4.68q0,17.46,0,34.92c0,5.46,0,10.92,0,16.37,0,2.16-.71,2.86-2.85,2.87h-7.23c-2.35,0-3-.65-3-3C121.46,142.11,121.47,141.71,121.47,141.12Zm-61.11,0v-2.28q0-9.56,0-19.1a6.54,6.54,0,0,1,6.89-7H118.8c4.34,0,7,2.72,7,7.1q0,10,0,19.91v1.3h4.37v-1.27q0-24.48,0-49a19,19,0,0,0-.44-3.91,19.58,19.58,0,0,0-19.38-15.63q-16,0-32,0A24.12,24.12,0,0,1,53.82,47.7c0-1.78.77-2.58,2.54-2.62.73,0,1.46,0,2.19,0a6.13,6.13,0,0,0,5.6-4.29c-.46,0-.89-.06-1.32-.06-4.69,0-9.37,0-14,0a7.2,7.2,0,0,0-2.25.4c-8.47,3-16.93,6-25.39,9.06-2.32.83-2.32.84-2.22,3.28,0,.08.08.15.2.38h6.21v4.38H19v4.31H37.61c2.5,0,3.1.61,3.1,3.15,0,8.28-.08,16.56.06,24.83A26.5,26.5,0,0,0,42,97.45c1.11,3.74,3.79,6.44,6.5,9.11A24.07,24.07,0,0,1,56,124.66c0,5,0,10.09,0,15.14v1.29ZM53.81,36.31V34.75c0-6.88,4.65-11.49,11.57-11.5a14.27,14.27,0,0,0,2.17,0,2,2,0,0,0,1.86-2.15,2,2,0,0,0-1.87-2.13c-5-.4-9.6.56-13.33,4.17a15.47,15.47,0,0,0-4.68,13.21ZM47.36,111.8v24.85H51.6c0-4.69.13-9.27,0-13.85A18.59,18.59,0,0,0,47.36,111.8Zm69.84,5.33v19.56h4.25c0-5.92,0-11.77,0-17.62a2,2,0,0,0-2-1.93C118.75,117.07,118,117.13,117.2,117.13Zm23.42-39.29a15,15,0,0,1-9.33-4.46,8.19,8.19,0,0,0-6.76-2,24.89,24.89,0,0,1,8.17,10.3,1.06,1.06,0,0,0,.68.52A6.61,6.61,0,0,0,140.62,77.84ZM23.29,72.92A6,6,0,0,0,27.54,67H23.29Z"/><path class="cls-1" d="M38.56,49.45a2.18,2.18,0,1,1-2.2,2.12A2.19,2.19,0,0,1,38.56,49.45Z"/><path class="cls-1" d="M67.63,109.6c-3.86-.1-7.49-1.53-9.48-5.73a12.15,12.15,0,0,1-.58-8c1.9-8.61,10.5-15.69,19.31-15.87a11.31,11.31,0,0,1,7.06,2,9.63,9.63,0,0,1,4,9c-.52,6.9-4.2,11.91-9.89,15.53A18.46,18.46,0,0,1,67.63,109.6ZM77,82c-.87.12-1.76.15-2.61.35A20.31,20.31,0,0,0,61,92.72a11.6,11.6,0,0,0-1.51,8.1c.94,4.77,5,6.93,9.33,6.68A16.82,16.82,0,0,0,78,103.9c3.82-2.87,6.72-6.42,7.65-11.25a8.49,8.49,0,0,0-2.4-8.28A9.19,9.19,0,0,0,77,82Z"/><path class="cls-1" d="M72.81,93.35c3.23.28,4.89-1.81,5.76-4.5.36-1.11.83-1.54,1.55-1.32s1,.84.61,1.94c-.73,2.35-1.91,4.42-4.25,5.47a7.31,7.31,0,0,1-3.15.66,5.7,5.7,0,0,0-5.55,3,22,22,0,0,0-1.19,2.77,1.13,1.13,0,0,1-1.45.82,1,1,0,0,1-.72-1.36c.81-2.89,2.17-5.43,5-6.77a19.14,19.14,0,0,1,3.32-.92Z"/><path class="cls-1" d="M99,102.52c-3.85-.1-7.48-1.53-9.47-5.73a12.09,12.09,0,0,1-.58-8c1.89-8.62,10.49-15.69,19.3-15.87a11.3,11.3,0,0,1,7.07,2,9.62,9.62,0,0,1,4,9c-.51,6.91-4.2,11.91-9.88,15.53A18.5,18.5,0,0,1,99,102.52ZM108.34,75a25,25,0,0,0-2.62.35A20.31,20.31,0,0,0,92.34,85.64a11.65,11.65,0,0,0-1.51,8.1c.94,4.77,5,6.92,9.33,6.68a16.82,16.82,0,0,0,9.22-3.6C113.2,94,116.1,90.4,117,85.57a8.52,8.52,0,0,0-2.4-8.29A9.2,9.2,0,0,0,108.34,75Z"/><path class="cls-1" d="M104.16,86.27c3.23.28,4.89-1.81,5.77-4.5.36-1.11.83-1.54,1.54-1.32s1,.84.62,1.94c-.74,2.35-1.92,4.41-4.26,5.47a7.14,7.14,0,0,1-3.14.65,5.7,5.7,0,0,0-5.55,3,20.13,20.13,0,0,0-1.2,2.77c-.28.7-.81,1-1.44.81a1,1,0,0,1-.73-1.36c.82-2.88,2.18-5.42,5-6.77a19.12,19.12,0,0,1,3.32-.91Z"/></svg>