<svg id="Layer_13" data-name="Layer 13" xmlns="http://www.w3.org/2000/svg" viewBox="0 0 160 160"><defs><style>.cls-1{fill:#33140a;}</style></defs><path class="cls-1" d="M73.14,139.4c-17-.61-32.58-7.53-43.51-23.28a70.57,70.57,0,0,1-4.12-7.74c-2.3-4.4-4.72-8.74-6.85-13.23a48.88,48.88,0,0,1-3.07-34.79C20.65,41.9,33,29.85,50.22,22.67A63.7,63.7,0,0,1,85,18.8c17.24,2.64,31.22,10.68,41.42,24.82a49.84,49.84,0,0,1,9.37,33.9c-.72,9.53-4.12,17.93-9.28,25.87-2.2,3.39-3.28,7.49-5.32,11-5.87,10.07-14.65,16.74-25.38,21C89.08,138.13,82.07,139.29,73.14,139.4ZM69.42,63.32a23.17,23.17,0,0,0,2.35-.45c4.46-1.37,8.52.58,12,2.47,4.05,2.16,6.26,6.38,7.23,11.07a4.38,4.38,0,0,0,2,2.47c8.11,4.84,16.32,9.51,24.38,14.42a4.89,4.89,0,0,1,2,3.59c-.08,4.73-2.56,8.39-6,11.47-1.73,1.55-3.4,1.47-5.37.32C100,104,91.84,99.32,83.7,94.71a3.84,3.84,0,0,0-2.69-.5,19.67,19.67,0,0,1-12.14,0,3.89,3.89,0,0,0-2.7.47q-12.21,6.89-24.33,14c-2.09,1.23-4.06,1.42-5.53-.47a41.59,41.59,0,0,1-5.61-8.61c-1.44-3.37-.51-5.06,2.78-7C41.21,88,49,83.52,56.74,78.9a6.73,6.73,0,0,0,2.13-2.69C60.31,73.48,61,70,63.12,68.09c2.55-2.36,2.95-4.7,2.85-7.72-.14-4.08,0-8.17,0-12.61a23.46,23.46,0,0,0-4.64.76c-4.78,1.92-9.88,3.43-14.18,6.15C32.61,63.87,24.89,77,25.74,94.55A18,18,0,0,0,31.06,107c13.49,13.48,29.76,19.38,48.64,18.06a58.05,58.05,0,0,0,38.39-17.49c1.68-1.69,3.68-3.49,4.4-5.62,3.24-9.64,2-19.13-2.32-28.17-5.48-11.52-14.66-19.09-26.44-23.58a96.27,96.27,0,0,0-9.45-2.58c-.34,4.51-.54,8.33-1,12.13-.1.91-.87,2.41-1.48,2.49-1.93.23-1.59-1.51-1.59-2.68,0-6.7.1-13.4.13-20.1,0-5.24-.89-6.09-6.25-5.8a6,6,0,0,0-2.85.59A3.94,3.94,0,0,0,69.5,36.7c-.22,2.86-.08,5.74-.08,8.62ZM21.68,91.58c.14-.92.25-1.83.42-2.74.75-4.13.9-8.49,2.39-12.33C31.13,59.3,43.93,49.06,61.7,44.66c4.78-1.18,4.18.11,4.23-5.06,0-1.43.1-2.88,0-4.3-.17-2.11.71-3.73,2.66-4.08a37.74,37.74,0,0,1,9.51-.82c4.74.37,6.26,2.09,5.86,6.14-.22,2.21-.76,5.06.33,6.54s4,1.41,6.09,2C110.05,50.58,128,68,127.74,90.87c0,.32.3.64.73,1.51.41-1.27.63-2,.88-2.69,5.65-15.77,3.36-30.53-6.14-44.09-8-11.46-19.21-18.53-32.76-21.93-13-3.26-25.89-2.76-38.26,2.23C35,32.82,23.09,44.84,18.65,63.31A41.92,41.92,0,0,0,21.68,91.58ZM62.56,79.13c-.39,7.81,7.11,12.7,12.56,12.57s12.53-4.89,12.2-13a12.17,12.17,0,0,0-12.52-12A11.93,11.93,0,0,0,62.56,79.13Zm53.42,36q-41.06,28-82.09,0c5.31,9.59,22.1,20.13,40,20.44C92.92,136,110.14,125.34,116,115.17ZM86.13,91.73c7.52,4.31,15.19,8.61,22.73,13.1,1.69,1,2.78.58,3.58-.67,1.45-2.27,2.63-4.71,4-7.25l-25-14.44ZM58.38,82.49l-4.79,2.72c-6,3.45-12,6.94-18,10.34-1.64.92-2.14,1.94-1.1,3.62.79,1.28,1.38,2.69,2.22,3.93,2,2.9,2.23,2.93,5.27,1.2,4.63-2.64,9.26-5.26,13.86-7.94,2.71-1.58,5.35-3.27,7.78-4.76Z"/></svg>