<svg id="Layer_29" data-name="Layer 29" xmlns="http://www.w3.org/2000/svg" viewBox="0 0 160 160"><defs><style>.cls-1,.cls-2{fill:#33140a;}.cls-2{stroke:#33140a;stroke-miterlimit:10;stroke-width:2px;}</style></defs><path class="cls-1" d="M104.26,101.15c-.24,8.44-2.1,16.38-7,23.37-3.51,5-8.06,8.57-14.21,9.66-7,1.23-12.72-1.37-17.51-6.27-5.27-5.39-8-12-9.17-19.38C54.68,98,56.36,88,62.1,78.8a24.29,24.29,0,0,1,8.67-8.36c7.61-4.3,16.6-2.9,23.23,3.69,5.66,5.62,8.51,12.62,9.67,20.38C104,96.71,104.07,98.94,104.26,101.15ZM80.43,129.73c.68,0,1,0,1.26-.1,5.29-.86,9-4,12-8.28,4.12-6,5.71-12.77,5.71-19.92,0-8.17-2.08-15.74-7.28-22.22a16.47,16.47,0,0,0-8-5.71c-.78,1.48-1.41,2.94-2.26,4.24-2.25,3.43-2.29,6.55,0,9.93a12.66,12.66,0,0,1,.06,14.73c-2.3,3.45-2.3,6.53,0,9.92a12.65,12.65,0,0,1,0,14.85C81.45,127.9,81.05,128.68,80.43,129.73Zm-4.77-.85c.92-1.68,1.66-3.18,2.54-4.59,1.9-3,2-6.4-.09-9.17-3.42-4.41-3.16-11-.22-15.27,2.29-3.33,2.18-6.46-.08-9.78a12.68,12.68,0,0,1,0-14.74c.48-.72.89-1.5,1.38-2.33a11.91,11.91,0,0,0-6.72,2A21.53,21.53,0,0,0,64,84.89a38.72,38.72,0,0,0,.65,34A20.13,20.13,0,0,0,75.66,128.88Z"/><path class="cls-2" d="M39.47,80q0-28,0-56.06c0-8,5.36-13.33,13.28-13.34q27.44,0,54.85,0A12.6,12.6,0,0,1,120.51,23.4q0,56.51,0,113a12.55,12.55,0,0,1-12.9,13q-27.57.06-55.15,0c-7.61,0-13-5.51-13-13.17Q39.46,108.11,39.47,80ZM117,80q0-28.24,0-56.51a8.94,8.94,0,0,0-9.33-9.38H52.38a10.45,10.45,0,0,0-2.09.15c-4.46.9-7.32,4.53-7.32,9.3Q43,79.77,43,136c0,6.25,3.62,9.91,9.86,9.91h54.55c5.91,0,9.64-3.75,9.64-9.68Q117,108.1,117,80Z"/><path class="cls-2" d="M80.13,23.72h-6C72.92,23.72,72,23.24,72,22s1-1.75,2.17-1.74h11.7c1.23,0,2.15.5,2.14,1.77s-1,1.75-2.17,1.74Z"/></svg>