<svg id="Layer_1" data-name="Layer 1" xmlns="http://www.w3.org/2000/svg" viewBox="0 0 27 27"><defs><style>.cls-1{fill:#33140a;}</style></defs><path class="cls-1" d="M12.69,23.19c-.38-1.06-.73-2.09-1.11-3.12a.45.45,0,0,0-.3-.21,9.75,9.75,0,0,1-6.5-5,9.89,9.89,0,1,1,11.15,4.91.69.69,0,0,0-.58.54c-.3,1-.63,1.88-.95,2.83.6.1,1.2.16,1.77.31a5.57,5.57,0,0,1,1.36.56,1,1,0,0,1,0,1.78,4.62,4.62,0,0,1-2,.7,11.1,11.1,0,0,1-4.93-.23,3.68,3.68,0,0,1-1.13-.54,1,1,0,0,1,0-1.65,4.56,4.56,0,0,1,2.11-.76C12,23.27,12.31,23.24,12.69,23.19Zm.85,0c.41-1.22.81-2.36,1.18-3.51a.76.76,0,0,1,.65-.57A9.08,9.08,0,1,0,4.52,11.6a9,9,0,0,0,7,7.45c.51.12.81.32.9.83a0,0,0,0,0,0,0C12.76,21,13.13,22,13.54,23.17Zm0,2.75c.72-.09,1.46-.14,2.17-.28a7,7,0,0,0,1.4-.53c.23-.1.2-.27,0-.4a1.9,1.9,0,0,0-.47-.24L14.44,24c-.26-.05-.38,0-.44.3s-.13.48-.45.49-.38-.24-.46-.47l0-.09a.25.25,0,0,0-.33-.23c-.68.13-1.36.24-2,.39a2.34,2.34,0,0,0-.68.32c-.2.11-.21.27,0,.4a3.84,3.84,0,0,0,.53.28A10.23,10.23,0,0,0,13.55,25.92Z"/><path class="cls-1" d="M18,7.19a8.53,8.53,0,0,1,1,.21,3,3,0,0,1,2.14,2.74,3.49,3.49,0,0,1-2.22,3.69,11,11,0,0,1-1.17.21.32.32,0,0,0-.24.13A4.36,4.36,0,0,1,14,16.61a7.61,7.61,0,0,1-4.09-.35,4.59,4.59,0,0,1-3-4.35c0-1.89,0-3.78,0-5.68,0-.43.12-.56.56-.56h10c.42,0,.55.13.55.55S18,6.86,18,7.19ZM7.67,6.5c0,1.93,0,3.82,0,5.71a3.53,3.53,0,0,0,2.39,3.26,6.51,6.51,0,0,0,4.89,0,3.1,3.1,0,0,0,1.81-1.74c.22-.51.22-.52.75-.51a2.56,2.56,0,0,0,2.77-2.46,2.28,2.28,0,0,0-1.61-2.62,5.58,5.58,0,0,0-1-.12c-.41,0-.53-.12-.53-.53v-1Z"/><path class="cls-1" d="M15.53,10.5A4,4,0,0,1,13,14.21a2.69,2.69,0,0,1-3.65-2,4,4,0,0,1,2.53-4.55,2.72,2.72,0,0,1,3.66,2.43C15.54,10.24,15.53,10.37,15.53,10.5ZM10,11.43a5.55,5.55,0,0,0,.17.83,1.84,1.84,0,0,0,2.25,1.27,3.18,3.18,0,0,0,2.21-3.78A1.86,1.86,0,0,0,12.3,8.41,3.29,3.29,0,0,0,10,11.43Z"/><path class="cls-1" d="M17.16,10.62V9.11c0-.33.14-.48.46-.47a4.36,4.36,0,0,1,.81.08,1.67,1.67,0,0,1,1.26,2,1.92,1.92,0,0,1-2.06,1.89c-.36,0-.48-.14-.48-.51s0-1,0-1.48ZM18,9.47v2.29c.61-.12.93-.63.9-1.42C18.86,9.78,18.62,9.54,18,9.47Z"/><path class="cls-1" d="M13.79,9.28c-.07.39-.14.79-.23,1.19,0,.09-.11.17-.18.24-.38.31-.75.64-1.15.93a.84.84,0,0,0-.35.66,3.81,3.81,0,0,1-.07.47.4.4,0,0,1-.79-.1,9.87,9.87,0,0,1,.16-1.09.51.51,0,0,1,.17-.24c.39-.34.78-.68,1.19-1a.84.84,0,0,0,.35-.6A6.17,6.17,0,0,1,13,9.14a.37.37,0,0,1,.45-.33C13.71,8.85,13.8,9,13.79,9.28Z"/></svg>