<svg id="Layer_1" data-name="Layer 1" xmlns="http://www.w3.org/2000/svg" viewBox="0 0 27 27"><defs><style>.cls-1{fill:#fff;}</style></defs><path class="cls-1" d="M21.91,11.74l-.57,0c0,.33,0,.65,0,1a.4.4,0,0,1-.16.27c-.31.18-.76.26-.93.52s-.06.68-.07,1l0,0A4,4,0,0,1,19,13c-.37.29-.73.56-.57,1.1-.53.11-.57.09-.79-.35-.07-.13-.13-.26-.2-.38-.22-.45-.22-.45-.74-.38l0,.05a1,1,0,0,1-.41.93c-.41.37-.79.77-1.17,1.18a.54.54,0,0,0-.16.37,3,3,0,0,1-.47,1.88.55.55,0,0,1-.78.14c-.34-.33-.68-.66-1-1a.53.53,0,0,1-.09-.29V14.66h-1a1.05,1.05,0,0,1-.77-.78c0-.1,0-.2,0-.3a1.1,1.1,0,0,1,.45-1.11.5.5,0,0,0,.14-.33c0-.31,0-.63,0-1H12v-.56l-.55,0V10H12l0,.53c.3-.3.65-.5.56-1,0-.08,0-.19.11-.26.3-.31.6-.62.92-.92a.41.41,0,0,1,.3-.07c.42.13.83.26,1.24.42a.91.91,0,0,0,.65,0c1.36-.53,2.73-1,4.1-1.55a.31.31,0,0,1,.42.1,4,4,0,0,0,1.5.94.7.7,0,0,0,.29,0h3.26c0,.37,0,.73,0,1.09,0,.05-.09.12-.16.15a5.08,5.08,0,0,1-.7.35.39.39,0,0,0-.29.48,2.27,2.27,0,0,1,0,.24h-.56V10H22.53v.55l.54,0v1.72H22c0-.2,0-.4-.05-.59h.59V10.67Z"/><path class="cls-1" d="M6.83,8.27H6.24v.57l-.45,0v0l1,.52L5.64,10c.32.21.44.59.89.59s.56-.42.89-.58l1,.5a.57.57,0,0,1,0,.72c-.52.54-1.05,1.06-1.58,1.58a.41.41,0,0,1-.27.08h-1v.57h1.7v.59h-1l0,.06.23.13,2.7,1.35c.44.22.53.42.38.9s-.33,1-.48,1.45a.22.22,0,0,1-.27.18c-.29,0-.43.08-.55.34-.24.54-.52,1.06-.79,1.59s-.22.44-.77.38c0-.1,0-.21,0-.31,0-.78,0-1.57,0-2.35a.52.52,0,0,0-.16-.37A4,4,0,0,1,5.72,16a.32.32,0,0,1,.08-.27c.32-.33.66-.65,1-1a2.38,2.38,0,0,0-.23-.14c-.3-.15-.59-.32-.9-.45a5.46,5.46,0,0,1-2.19-1.6,1,1,0,0,1-.16-.38.76.76,0,0,1,0-.3c.12-.71-.33-1.07-.87-1.36-.29-.16-.58-.29-.91-.46L1,10.63C.81,10.22.63,9.87.46,9.52a.14.14,0,0,1,0-.11,1.34,1.34,0,0,1,.78-.55H3.31l0-.59h.54v.57l-.36,0c.48.2.95.37,1.43.52a.2.2,0,0,0,.13,0,1,1,0,0,0,.51-1.13h-.5c-.17-.52.17-.82.52-1.11a.34.34,0,0,1,.23,0c.4,0,.8,0,1.19,0A2.71,2.71,0,0,0,8.79,6.7a1.05,1.05,0,0,1,.75-.17.58.58,0,0,1,.31.13c.3.28.59.58.89.88a.55.55,0,0,1-.13.87c-.29.14-.69.23-.84.46s0,.64,0,1c0,.05,0,.11,0,.18a2.94,2.94,0,0,1-.42,0,.37.37,0,0,1-.22-.14q-.24-.43-.45-.9a1,1,0,0,1-.06-.4,1,1,0,0,0-1.1-.88.54.54,0,0,0-.22.15l-.41.43Z"/><path class="cls-1" d="M24.26,18.73c-.35-.17-.66-.34-1-.48a.5.5,0,0,0-.34,0c-.32.14-.64.31-1,.48-.14-.43-.29-.86-.43-1.28s-.14-.43.27-.68a2.66,2.66,0,0,1,1.74-.36.49.49,0,0,1,.26.1c.32.31.63.62.94.95a.27.27,0,0,1,.07.22Z"/><path class="cls-1" d="M24.28,15.84H22.53v-.58h1.72l0,.59Z"/><path class="cls-1" d="M12.64,7.09V6.55h1.13v.54Z"/><path class="cls-1" d="M20.79,13.52h.54v1.13h-.54Z"/><path class="cls-1" d="M16.09,17h-.54V15.86h.54Z"/><path class="cls-1" d="M20.79,15.84h-.58v-.57h.55l0,.58Z"/><path class="cls-1" d="M21.33,15.85v-.58h.59v.57h-.59Z"/><path class="cls-1" d="M3.89,8.27l0-.57h.57v.57H3.89Z"/><path class="cls-1" d="M16.67,7.64l0,.61h-.57V7.71l.55-.06Z"/><path class="cls-1" d="M4.48,8.27h.6v.57H4.49V8.27Z"/><path class="cls-1" d="M21.94,13.48v-.54h.55v.54Z"/><path class="cls-1" d="M26,18.75,26,19.3h-.54v-.54H26Z"/><path class="cls-1" d="M16.68,7.65l0-.52h.55V7.7l-.59-.06Z"/><path class="cls-1" d="M6.83,8.27H7.4l-.05.62h0l-.53-.06V8.27Z"/><path class="cls-1" d="M7.35,8.89,8,8.84v.57H7.41c0-.18,0-.35,0-.52Z"/><path class="cls-1" d="M26,18.76,26,18.17h.57v.55l-.52,0Z"/><path class="cls-1" d="M10.86,9.41h-.54V8.88h.54Z"/><path class="cls-1" d="M21.33,15.84v.55h-.54v-.55h.54Z"/><path class="cls-1" d="M24.27,15.85h.55v.54h-.54v-.55Z"/></svg>