<svg id="Layer_7" data-name="Layer 7" xmlns="http://www.w3.org/2000/svg" viewBox="0 0 160 160"><defs><style>.cls-1{fill:#33140a;}</style></defs><path class="cls-1" d="M78.08,102.3c-13.69-1-24-6.71-29.86-18.94-2.79-5.78-2.5-11.94-1.12-18.12,1.86-8.3,6.39-15.15,11.36-21.8S68.79,30,72,22.06c1.4-3.44,2.26-7.09,3.57-10.57C76,10.44,77,9.65,77.8,8.74c.65.91,1.65,1.73,1.9,2.74,2.57,10.3,7.88,19.13,14,27.62C98,45,102.55,51,105.54,57.59,114.3,76.9,107,93.82,86.47,100.86,83.69,101.82,80.61,101.89,78.08,102.3Zm-.32-83.89c-1,2.28-1.6,3.9-2.29,5.51-3.74,8.71-9.61,16-15.19,23.56-5.46,7.35-9.77,15.16-10.17,24.62a21.21,21.21,0,0,0,3.72,13.46C62.49,97.91,79,102.17,92.37,94c8.4-5.1,13.48-12.3,12.73-22.82a38.13,38.13,0,0,0-6-17.76C92,42,82.3,32.17,77.76,18.41Z"/><path class="cls-1" d="M45.94,91.78c-1.38,1-2,1.86-2.71,2-8.74,1.08-13,6.73-15.19,14.59-.3,1.08-1.33,2.61-2.19,2.73-1.68.24-1.87-1.44-2.28-2.85-2.2-7.55-6.22-13.29-14.78-14.43-.73-.1-1.34-1.11-2-1.7.61-.64,1.17-1.77,1.85-1.85,8.9-1,12.78-7,15.08-14.74.3-1,1.33-1.75,2-2.62.76.82,1.92,1.52,2.22,2.49,1.49,4.65,3,9.31,7.47,12,2.17,1.31,4.79,1.86,7.19,2.81C43.51,90.49,44.36,91,45.94,91.78Zm-20.1,9.77L34,92.06l-8.16-9.59L17.57,92Z"/><path class="cls-1" d="M55.45,71.08c.54.83,1.47,1.64,1.54,2.51a17.75,17.75,0,0,0,6,11.82c1,.94,2,1.79.58,3.2s-2.27.36-3.27-.52c-4.12-3.66-6.72-8.12-7-13.67-.06-1.06.71-2.16,1.1-3.24Z"/><path class="cls-1" d="M73.19,94.7a49.15,49.15,0,0,1-5.67-2.12,2.67,2.67,0,0,1-1-2.23c0-.46,1.3-1.2,1.9-1.11a23.67,23.67,0,0,1,5.33,1.52,2.46,2.46,0,0,1,1.19,2C74.78,93.54,73.79,94.1,73.19,94.7Z"/><path class="cls-1" d="M95,145.5c-6-4.65-11.88-9.22-17.77-13.75A34.56,34.56,0,0,0,64,125.06c-2.41-.56-3.73.31-3.55,2.46.23,2.73.53,5.77,1.88,8,5,8.32,12.76,12.5,22.19,13.56A11.8,11.8,0,0,0,95,145.5Z"/><path class="cls-1" d="M141.35,138.59l-8.7-.78c-7.88-.71-15.75-1.66-23.64-2-2.38-.1-6.36.94-6.92,2.45-1.15,3.12,1.87,5.49,4.26,7.52.13.11.36.12.51.22,7,4.47,14.6,4.82,22.32,2.87C134.6,147.52,139.32,144.81,141.35,138.59Z"/><path class="cls-1" d="M96.6,141.27c-.08-8.33-7.59-16.13-18.34-19.76-4.82-1.63-9.86-1.53-11.27.28C78.65,125.22,85.94,135.4,96.6,141.27Z"/><path class="cls-1" d="M53.35,130.38c-2.8-4.33-10.88-6-18.71-4-8.09,2-15.33,7.07-15.67,11.14C29.67,131.58,41.92,133.55,53.35,130.38Z"/><path class="cls-1" d="M139.86,134.19c-1.71-4.94-9.25-8-15.63-8.51-7.37-.58-14.22.9-19.71,6.44C116.45,129.18,127.86,134.78,139.86,134.19Z"/><path class="cls-1" d="M95,145.5a11.8,11.8,0,0,1-10.42,3.62c-9.43-1.06-17.24-5.24-22.19-13.56-1.35-2.27-1.65-5.31-1.88-8-.18-2.15,1.14-3,3.55-2.46a34.56,34.56,0,0,1,13.17,6.69C83.07,136.28,88.94,140.85,95,145.5Z"/><path class="cls-1" d="M141.35,138.59c-2,6.22-6.75,8.93-12.17,10.29-7.72,2-15.33,1.6-22.32-2.87-.15-.1-.38-.11-.51-.22-2.39-2-5.41-4.4-4.26-7.52.56-1.51,4.54-2.55,6.92-2.45,7.89.33,15.76,1.28,23.64,2Z"/><path class="cls-1" d="M96.6,141.27C85.94,135.4,78.65,125.22,67,121.79c1.41-1.81,6.45-1.91,11.27-.28C89,125.14,96.52,132.94,96.6,141.27Z"/><path class="cls-1" d="M53.35,130.38c-11.43,3.17-23.68,1.2-34.38,7.1.34-4.07,7.58-9.15,15.67-11.14C42.47,124.41,50.55,126.05,53.35,130.38Z"/><path class="cls-1" d="M139.86,134.19c-12,.59-23.41-5-35.34-2.07,5.49-5.54,12.34-7,19.71-6.44C130.61,126.18,138.15,129.25,139.86,134.19Z"/><path class="cls-1" d="M56.56,133.35a15.39,15.39,0,0,1-.73,4.15,16.72,16.72,0,0,1-5,7.33,23.76,23.76,0,0,1-10,5.13,31.8,31.8,0,0,1-12.57,1.1c-2.67-.31-8.39-1-10.56-4.6a4,4,0,0,1-.65-3.1,4.05,4.05,0,0,1,2.53-2.15c13.54-5.33,18-6,18-6C42.76,134.44,49.18,133.71,56.56,133.35Z"/><path class="cls-1" d="M84.41,112.49l8.71.78c7.88.71,15.74,1.66,23.64,2,2.37.1,6.35-.94,6.91-2.45,1.16-3.12-1.87-5.49-4.25-7.51-.14-.12-.36-.13-.52-.23-7-4.47-14.6-4.82-22.32-2.87C91.16,103.57,86.45,106.27,84.41,112.49Z"/><path class="cls-1" d="M85.91,116.89c1.71,4.94,9.24,8,15.63,8.51,7.36.58,14.21-.9,19.71-6.43C109.31,121.9,97.9,116.31,85.91,116.89Z"/><path class="cls-1" d="M84.41,112.49c2-6.22,6.75-8.92,12.17-10.29,7.72-2,15.34-1.6,22.32,2.87.16.1.38.11.52.23,2.38,2,5.41,4.39,4.25,7.51-.56,1.51-4.54,2.55-6.91,2.45-7.9-.33-15.76-1.28-23.64-2Z"/><path class="cls-1" d="M85.91,116.89c12-.58,23.4,5,35.34,2.08-5.5,5.53-12.35,7-19.71,6.43C95.15,124.9,87.62,121.83,85.91,116.89Z"/><path class="cls-1" d="M153.22,51.78c-1.38,1-2,1.87-2.71,1.95-8.73,1.09-13,6.74-15.19,14.6-.3,1.08-1.33,2.61-2.19,2.73-1.68.24-1.87-1.44-2.28-2.86-2.2-7.55-6.22-13.29-14.78-14.43-.73-.09-1.34-1.1-2-1.69.61-.64,1.17-1.78,1.86-1.86,8.9-1,12.77-7,15.08-14.74.29-1,1.32-1.75,2-2.61.77.82,1.92,1.52,2.23,2.48,1.48,4.66,3,9.31,7.46,12,2.17,1.3,4.79,1.86,7.19,2.81C150.79,50.49,151.64,51,153.22,51.78Zm-20.1,9.77,8.19-9.48-8.16-9.6L124.85,52Z"/></svg>