<svg id="Layer_23" data-name="Layer 23" xmlns="http://www.w3.org/2000/svg" viewBox="0 0 160 160"><defs><style>.cls-1{fill:#33140a;}</style></defs><path class="cls-1" d="M35,93.51c-7,.48-13.09-1.39-18-6.27a22.15,22.15,0,0,1-4.57-24.65C16,54.21,24.22,49.27,33.77,49.66c8.52.34,16.62,6.55,19.52,14.94.22.64.49,1.73.86,1.78a17.66,17.66,0,0,0,3.91,0c.17,0,.34-.55.44-.87,3.41-10.4,11.75-16.24,22.59-15.79,8.53.35,16.71,6.73,19.48,15.19.16.48.3,1,.48,1.54H106a22.16,22.16,0,0,1,27.44-16C144,53.6,150.87,64,149.33,74.59a22.52,22.52,0,0,1-24.34,19c-.16.43-.33.89-.49,1.36-5.51,16.31-26.09,20.79-37.41,8.14a20.67,20.67,0,0,1-4.6-8.43c-.26-1-.69-1-1.55-1.1-2.61-.36-3.66.73-4.7,3.14C69.9,111.42,51.57,115,40.58,103.8A21.88,21.88,0,0,1,35,93.51Zm90.66-6c6,1.29,15.54-2.43,17.67-12.34,2-9.12-4.6-18.23-14-19.61-7.89-1.17-16.7,5.13-17.42,12.51C120.12,71.92,124.82,78.35,125.62,87.48Zm-91.26,0C35.14,78.25,39.67,71.74,48,68,46.41,59.82,37.27,54,28.92,55.8A16.12,16.12,0,0,0,16.7,75.26C19,85.17,28.41,88.71,34.36,87.5Zm84.88,4.58c-8.49-3.79-13-10.42-13.78-19.83-.92,0-1.72,0-2.51,0-1,0-1.33.43-1.44,1.43-.87,8.3-5.11,14.26-12.6,17.93-.34.17-.68.37-1,.54,1.59,7.53,8.31,12.6,16.33,12.42C111.48,104.4,118.17,98.86,119.24,92.08ZM72,92.4s0-.1-.09-.12l-1-.45c-7.81-3.58-12.23-9.65-13.12-18.2-.12-1.16-.58-1.49-1.6-1.39l-1.71.17C53.7,81.67,49,88.12,40.68,92a15.85,15.85,0,0,0,15.63,12.56C63.93,104.58,70.56,99.43,72,92.4Zm-7.9-24.61c8.6,3.8,13.51,10.35,14.36,19.84h3.1c.75-9.31,5.29-15.88,13.69-19.69C94.16,61.11,87,55.39,79.6,55.44,72,55.49,65.06,61,64.09,67.79ZM72,85.87c-.32-4.26-4.64-10.23-8.23-11.38A15.93,15.93,0,0,0,72,85.87Zm15.7-.34c4.18-2.09,8-7.69,7.57-11A16.1,16.1,0,0,0,87.69,85.53Zm24.18-10.85c.74,4.76,3.25,8.3,7.67,11A15.36,15.36,0,0,0,111.87,74.68Zm-71.4,11A16.23,16.23,0,0,0,48.4,74.27,16.32,16.32,0,0,0,40.47,85.7Z"/></svg>