<svg id="Layer_16" data-name="Layer 16" xmlns="http://www.w3.org/2000/svg" viewBox="0 0 160 160"><defs><style>.cls-1{fill:#33140a;}</style></defs><path class="cls-1" d="M117.31,133.85H42.76c0-.48-.07-.93-.07-1.38q0-33,0-66.09a41.73,41.73,0,0,1,7.48-24.26,7.35,7.35,0,0,0,1.4-4.63c-.09-3.36,0-6.73,0-10.1,0-.92.24-1.24,1.22-1.24q27.29,0,54.57,0c.29,0,.58,0,1,.07,0,1.11,0,2.16,0,3.22,0,2.89,0,5.79,0,8.69a5.23,5.23,0,0,0,1,3.2,42.82,42.82,0,0,1,6.8,14.88,62.29,62.29,0,0,1,1.2,13.07q-.06,31.38,0,62.76ZM63,42.42c-2.61,0-5.12,0-7.63,0a2.15,2.15,0,0,0-1.44.73,38.34,38.34,0,0,0-7.49,22.66c-.06,21,0,42.1-.06,63.15,0,1.14.52,1.2,1.39,1.2q23.39,0,46.78,0c1.18,0,1.29-.52,1.29-1.46q0-30.94,0-61.87A42.1,42.1,0,0,1,102,44.14c.31-.49.58-1,.87-1.5-.19-.11-.25-.19-.32-.19-5.45,0-10.91,0-16.36,0a1.35,1.35,0,0,0-1,.57,105.44,105.44,0,0,0-5.39,10.25c-2,4.77-2.26,9.92-2.29,15.06,0,1.64,0,3.29,0,5H61.36c0-2.26,0-4.38,0-6.51.09-7.89,1.55-15.5,6-22.11a16.18,16.18,0,0,0,2.9-11.12c-.12-1.17,0-2.36,0-3.64-4.91,0-9.59,0-14.26,0-.25,0-.68.57-.71.91-.09,1.14,0,2.29,0,3.44v4.41H63Zm43.67,1.32-1,1.48a38.6,38.6,0,0,0-6.18,21.53c-.06,20.61,0,41.22,0,61.84,0,.5.07,1,.11,1.59H101c3.7,0,7.41,0,11.11,0,1.16,0,1.52-.29,1.51-1.48,0-20.58,0-41.15,0-61.72a37.64,37.64,0,0,0-3.11-16C109.35,48.61,108,46.34,106.67,43.74ZM82.6,29.9c-2.63,0-5.1,0-7.56,0-.9,0-1.17.29-1.16,1.17,0,2.94.07,5.88,0,8.82a5.6,5.6,0,0,1-.75,2.46c-1.46,2.64-3.18,5.15-4.52,7.84-3,6.1-3.63,12.67-3.48,19.56,2.47,0,4.85,0,7.21,0,1.15,0,1.47-.28,1.55-1.48A119.92,119.92,0,0,1,75.13,56c1-5.45,3.71-10.19,6.72-14.76a3.19,3.19,0,0,0,.72-1.45C82.64,36.55,82.6,33.32,82.6,29.9Zm3.77,8.71h18.26c0-2.71,0-5.34,0-8,0-.25-.56-.71-.86-.71q-8.25-.06-16.49,0c-.29,0-.83.49-.83.75C86.34,33.27,86.37,35.87,86.37,38.61Z"/><path class="cls-1" d="M55.72,104.62c0-9.9,7.48-19.42,16.69-21.24,7.27-1.44,12.87,2.54,13.91,9.87C87.76,103.36,80.83,114.11,71,117c-8.11,2.4-15-2.52-15.29-11C55.71,105.56,55.72,105.09,55.72,104.62Zm18.9-18c-.22,0-.69,0-1.16.07a6.52,6.52,0,0,0-.74.16,15.86,15.86,0,0,0-9,6.27c-3.1,4-5.12,8.43-4.43,13.68a8.07,8.07,0,0,0,9.89,7.11c4-.8,7-3.23,9.4-6.36,2.81-3.61,4.67-7.63,4.53-12.31C82.91,90.1,79.54,86.63,74.62,86.6Z"/><path class="cls-1" d="M77.85,93.7c-.3,3.89-1.88,7.2-6.21,8.1-2,.42-3.22,2.32-3.42,4.87,0,.34,0,.69,0,1a1.72,1.72,0,0,1-1.78,1.78,1.74,1.74,0,0,1-1.93-1.65c-.62-3.91,2.2-8.45,5.91-9.54,2.77-.82,3.65-2,3.74-4.84.05-1.42.63-2.14,1.78-2.18S77.91,92.14,77.85,93.7Z"/></svg>