<svg id="Layer_3" data-name="Layer 3" xmlns="http://www.w3.org/2000/svg" viewBox="0 0 160 160"><defs><style>.cls-1{fill:#33140a;}</style></defs><path class="cls-1" d="M49.26,76.92c-2.35-10.61-2.75-20.58-.68-30.46,2.15-10.29,6.09-19.83,14.47-26.79,9.92-8.24,22.41-7.61,31.58,1.52,8,8,11.87,18,13.55,28.94.61,4,.83,8.06,1.3,12.89,1.23-2.89,2.23-5.21,3.2-7.55s2-4.94,3-7.4c.68-1.65,1.72-2.14,3.52-1.4a37.86,37.86,0,0,1,18.46,16c8.77,14.61,9.48,30.05,4.06,45.93-4.8,14.06-13.56,25-26.72,32-10.66,5.73-21.86,7.12-33.56,3.53A4.65,4.65,0,0,0,78.9,144c-17.07,5.12-32,.67-44.62-11.06C17.7,117.55,11.52,98.29,16.55,76.17c2.93-12.92,10.49-23,22.77-28.9,1.17-.56,2.71-.34,4.08-.49a16.42,16.42,0,0,1,.17,4.12c-1.3,6-2.84,11.91-4.13,17.9a3.14,3.14,0,0,0,1,2.68C43,73.32,45.88,74.89,49.26,76.92Zm69.68-26c-2.15,5.33-4,10.38-6.22,15.26-1.24,2.71-.61,4.47,1.32,6.46,2.33,2.4,4.21,5.22,6.47,7.69,1.53,1.68,1.36,2.79-.39,4.1-3.94,2.94-7.77,6-11.71,9a5.71,5.71,0,0,0-2.58,5c0,6.15-.28,12.3-.24,18.44,0,2.35-.83,3.43-3.11,3.76-4.41.63-8.81,1.3-13.18,2.17-1.06.21-2.58,1.08-2.84,2-1.49,5-2.66,10.06-3.95,15.18a11.09,11.09,0,0,0,1.51.67,38.11,38.11,0,0,0,28.5-3.26,54,54,0,0,0,27.79-55.61C138.23,68.32,131.77,57.76,118.94,50.93ZM79.27,102.34c0-5.06-.46-9.83.09-14.49,1.53-12.76,3.69-25.44,5.2-38.2,1.19-10,.4-19.93-3.84-29.36a3,3,0,0,0-3.36-2.1C70,18.3,65,22.46,60.94,27.89c-6.23,8.32-8.85,17.94-9.34,28.2-.61,13,1.5,25.46,9.4,36.24C65.45,98.4,71,102.93,79.27,102.34Zm-4.06,38.51c-1.41-1.11-2.11-1.73-2.87-2.26-3.88-2.69-7.73-5.42-11.69-8-2.06-1.35-2.9-2.89-2.33-5.43.76-3.37,1.07-6.84,1.72-10.24a4,4,0,0,0-1.64-4.35c-4-3.31-8-6.69-11.75-10.29A5.94,5.94,0,0,1,44.94,96,105.83,105.83,0,0,1,47,83.17c.44-2-.26-2.92-1.77-3.82-3.12-1.88-6.19-3.83-9.28-5.75a2.81,2.81,0,0,1-1.39-3.72c1.13-3.58,2-7.23,2.9-10.88.51-2.12.81-4.28,1.28-6.85a38.21,38.21,0,0,0-18.6,26.46c-3.72,19,1.49,35.91,15.14,49.76,9.87,10,21.92,14.9,36.22,13.15C72.52,141.4,73.49,141.17,75.21,140.85ZM78.7,138c1.29-5.09,2.59-9.83,3.68-14.63.58-2.54,1.45-4.28,4.49-4.55,3.83-.33,7.61-1.25,11.43-1.74,2.35-.3,3.38-1.2,3.35-3.77-.07-5.74.29-11.49.29-17.24a5.24,5.24,0,0,1,2.38-4.7c4.08-3,8-6.16,12.21-9.38l-8.2-9.68a26,26,0,0,0-.87,2.67,47.59,47.59,0,0,1-9.12,20.65c-6.57,8.31-14.68,13-25.71,10.21a24.37,24.37,0,0,1-13.46-9.21c-2.9-3.81-5.25-8-8.05-12.4-.63,3.48-1.08,6.8-1.89,10a3.83,3.83,0,0,0,1.5,4.34c3.62,3,7,6.36,10.83,9.11,3.18,2.28,3.31,5,2.57,8.27a87,87,0,0,0-1.42,9.08,3,3,0,0,0,1,2.39C68.55,131,73.48,134.37,78.7,138ZM85.79,19.91c1,5.21,2.24,10,2.88,14.84C90.39,48,87.28,61,85.53,74c-1,7.84-1.77,15.72-2.49,23.6-.12,1.33.5,2.72.81,4.2C93.43,97.62,97.35,91.3,100,85c7.16-17.44,6.87-34.9-1.6-51.91A29.41,29.41,0,0,0,85.79,19.91Z"/></svg>