<svg id="Layer_1" data-name="Layer 1" xmlns="http://www.w3.org/2000/svg" viewBox="0 0 27 27"><defs><style>.cls-1{fill:#fff;}</style></defs><path class="cls-1" d="M15.13,17.45l.7,1.18H6.94l.72-1.16C2.93,15.11.92,11.16.89,6H22c0,.67,0,1.35-.11,2a12,12,0,0,1-1,3.65.37.37,0,0,0,.24.56,3.53,3.53,0,0,0,1.11.22,4.34,4.34,0,0,0,1.34-.24A2.49,2.49,0,0,0,25.2,9.47a1.79,1.79,0,0,0-1.75-1.62h-.56V7a2.59,2.59,0,0,1,2.57.88,3.27,3.27,0,0,1-.5,4.53,4.84,4.84,0,0,1-3.74,1,9.1,9.1,0,0,1-1.15-.24A10.82,10.82,0,0,1,15.13,17.45Zm-12.8-10a.62.62,0,0,0,0,.12A10.56,10.56,0,0,0,5,13.93a8.45,8.45,0,0,0,11.3,1.3,9.94,9.94,0,0,0,4-6.45c.09-.45.13-.9.2-1.37Z"/><path class="cls-1" d="M21.45,19.6c-.29.45-.56.88-.85,1.29,0,.07-.19.1-.29.1H2.06a.44.44,0,0,1-.42-.22c-.25-.39-.51-.76-.79-1.17Z"/><path class="cls-1" d="M4.59,10.67c.32,0,.63,0,.93,0,.06,0,.14.12.18.2a16,16,0,0,0,.72,1.58,3.13,3.13,0,0,0,2.77,1.48A5.3,5.3,0,0,1,7,10.68H18.22c-.08.35-.13.68-.23,1a5.45,5.45,0,0,1-2.28,2.89,8,8,0,0,1-9-.29,5.14,5.14,0,0,1-2.07-3.4A1.64,1.64,0,0,0,4.59,10.67Z"/></svg>