<svg id="Layer_11" data-name="Layer 11" xmlns="http://www.w3.org/2000/svg" viewBox="0 0 160 160"><defs><style>.cls-1{fill:#33140a;}</style></defs><path class="cls-1" d="M113,54.74c-.24,1.19-.39,2.17-.64,3.13A25.1,25.1,0,0,1,102.22,72.6c-.81.57-1.64,1.13-2.65.45s-.77-1.6-.54-2.6a7.33,7.33,0,0,0,.07-2.76C98.21,63,95.6,59.1,93,55.12c-.88,1.18-1.62,2.28-2.48,3.28a37.79,37.79,0,0,1-9.08,7.38A1.79,1.79,0,0,1,79,65.54c-6.65-6.42-11.64-13.83-13.34-23.09-.46-2.45-.56-5-.82-7.45a1.73,1.73,0,0,0-.3-.91,26.64,26.64,0,0,0-1.83,3.18c-1.41,3.38-2.71,6.8-4,10.21-.12.3-.16.63-.27.93a1.65,1.65,0,0,1-2,1.19,1.57,1.57,0,0,1-1.36-2,40.19,40.19,0,0,1,1.22-4.42,48.87,48.87,0,0,1,9-16c.69-.82,1.46-1.36,2.5-.89s1.1,1.48,1,2.5C67.24,40.14,70,50.23,77.61,58.91c1,1.08,2,2.13,3,3.24,3.14-2,6.07-4.14,8.15-7.13a37.71,37.71,0,0,0,1.84-3.9c.33-.61.85-1.38,1.43-1.53a2.17,2.17,0,0,1,1.84.75c3.29,4.46,6.34,9.07,8,14.41.29.91.49,1.85.79,3,.4-.37.73-.64,1-1,4.82-5.24,6.44-11.5,5.81-18.46-.09-1,.11-1.88,1.17-2.22a1.85,1.85,0,0,1,2.3,1.07,76.63,76.63,0,0,1,9.27,22.62c1.3,6.09,1.63,12.17-.83,18.09a23.74,23.74,0,0,1-1.89,3.51,1.65,1.65,0,0,1-2.42.53,1.62,1.62,0,0,1-.53-2.34c4.22-6.58,3.83-13.65,1.88-20.68-1.28-4.6-3.31-9-5-13.47A4.85,4.85,0,0,0,113,54.74Z"/><path class="cls-1" d="M54.48,131.41c-6-.15-11.64-2.38-14.73-8.91-1.9-4-1.83-8.22-.9-12.44,2.94-13.39,16.32-24.39,30-24.67a17.58,17.58,0,0,1,11,3.11c4.79,3.46,6.63,8.37,6.21,14.06-.8,10.74-6.53,18.52-15.37,24.15A28.65,28.65,0,0,1,54.48,131.41ZM69,88.55a39.2,39.2,0,0,0-4.06.54c-9.35,2.22-16.15,7.82-20.8,16.08a18,18,0,0,0-2.35,12.59c1.46,7.42,7.8,10.77,14.51,10.38a26.1,26.1,0,0,0,14.33-5.59c5.94-4.46,10.45-10,11.89-17.49.94-4.88,0-9.35-3.73-12.89C76.09,89.61,72.72,88.67,69,88.55Z"/><path class="cls-1" d="M87.51,88.84l-1.39-3.09A16.3,16.3,0,0,1,97.56,85c11.83,3.41,19,11.49,22.57,23a24.11,24.11,0,0,1-.16,15.47,15.26,15.26,0,0,1-17.16,10.08C95,132.38,88.94,128.25,84,122.25a2.92,2.92,0,0,1-.23-.43l2.62-2-.42.52c1.58,1.33,3.18,2.62,4.73,4a23.56,23.56,0,0,0,11.83,6c7.79,1.24,14.35-3.78,15.29-11.67.73-6-1-11.51-4-16.62-3.45-5.79-8-10.41-14.42-12.92C95.44,87.48,92.83,87.48,87.51,88.84Z"/><path class="cls-1" d="M50.34,56.58c-.13,1.06-.23,2.13-.39,3.2a27.38,27.38,0,0,1-4.18,11,33,33,0,0,0-4.9,10.46A20.89,20.89,0,0,0,41.4,93c.45,1.29.11,2.29-.85,2.64-1.13.42-2-.12-2.5-1.58-2.39-7-1.39-13.69,1.79-20.16,1.14-2.31,2.69-4.41,3.9-6.69,2.74-5.14,3.95-10.54,2.4-16.34a1.76,1.76,0,0,1,.75-2.22,1.9,1.9,0,0,1,2.48.6A48.78,48.78,0,0,1,61.7,75.1a1.83,1.83,0,0,1-1.5,2.14,1.79,1.79,0,0,1-2-1.68,43.74,43.74,0,0,0-6.26-17c-.42-.67-.88-1.33-1.33-2Z"/><path class="cls-1" d="M96.42,109.89c.11-.92.22-1.84.32-2.76.41-3.56-1.27-6-4.13-7.87-.67-.44-1.43-.75-2.1-1.2a1.62,1.62,0,0,1-.59-2.32A1.56,1.56,0,0,1,92.08,95c4,1.94,7.19,4.67,8.07,9.31a8.88,8.88,0,0,1,.06,3.25c-1,5.33,1.84,8.62,5.4,10.76.93.56,2,1,2.93,1.45a1.75,1.75,0,0,1-1.31,3.23c-3.87-1.56-7.23-3.76-9.32-7.53A11,11,0,0,1,96.42,109.89Z"/><path class="cls-1" d="M62.54,106.15c5,.43,7.6-2.82,9-7,.56-1.72,1.29-2.39,2.4-2s1.49,1.32,1,3c-1.15,3.66-3,6.87-6.62,8.51a11.22,11.22,0,0,1-4.89,1,8.85,8.85,0,0,0-8.63,4.68,32.32,32.32,0,0,0-1.85,4.31c-.44,1.09-1.26,1.61-2.25,1.27a1.63,1.63,0,0,1-1.13-2.12c1.27-4.48,3.38-8.43,7.8-10.52a28.25,28.25,0,0,1,5.16-1.42Z"/></svg>