<svg id="Layer_2" data-name="Layer 2" xmlns="http://www.w3.org/2000/svg" viewBox="0 0 160 160"><defs><style>.cls-1{fill:#33140a;}</style></defs><path class="cls-1" d="M95.84,136.45c-6-4.65-11.88-9.21-17.77-13.75A34.7,34.7,0,0,0,64.9,116c-2.4-.56-3.73.31-3.55,2.46.24,2.73.53,5.77,1.88,8,5,8.32,12.76,12.5,22.2,13.56A11.79,11.79,0,0,0,95.84,136.45Z"/><path class="cls-1" d="M142.24,129.54l-8.7-.77c-7.88-.72-15.75-1.67-23.64-2-2.38-.1-6.35.94-6.92,2.45-1.15,3.12,1.87,5.49,4.26,7.52.13.11.36.12.51.22,7,4.47,14.6,4.82,22.32,2.87C135.49,138.47,140.21,135.76,142.24,129.54Z"/><path class="cls-1" d="M121.64,94.35a11.26,11.26,0,0,0-7.29-5.11c-6.5-1.76-12.8-.69-18.76,2-4.56,2-8.81,4.84-10.68,9.82-.62,1.65-.31,3.65-.43,5.49,1.71,0,3.59.59,5.08,0a71.76,71.76,0,0,0,10.18-4.63C106.44,98.24,112.58,93.17,121.64,94.35Z"/><path class="cls-1" d="M88.28,110.8l0,.77a33.22,33.22,0,0,0,3.53,1.52c7,2.11,13.82,1,20.25-2.14,4.52-2.19,8.46-5.2,10.23-10.28.66-1.87,0-3-1.82-2.7-3.46.6-7.09,1.09-10.21,2.55C102.93,104,96.69,109.62,88.28,110.8Z"/><path class="cls-1" d="M97.49,132.22c-.08-8.33-7.59-16.13-18.34-19.76-4.81-1.63-9.86-1.53-11.27.28C79.54,116.17,86.83,126.35,97.49,132.22Z"/><path class="cls-1" d="M54.24,121.33c-2.8-4.33-10.88-6-18.71-4-8.09,2-15.33,7.07-15.67,11.14C30.56,122.53,42.81,124.5,54.24,121.33Z"/><path class="cls-1" d="M140.75,125.14c-1.71-4.94-9.25-8-15.63-8.51-7.37-.58-14.22.9-19.71,6.44C117.34,120.13,128.75,125.73,140.75,125.14Z"/><path class="cls-1" d="M55.13,31.45c0,4.54.13,9.08-.05,13.61-.09,2.33.78,3,2.94,2.86a83.13,83.13,0,0,1,8.79,0,3.23,3.23,0,0,1,2.47,1.34c.26.63-.36,2-1,2.58C60.27,60,52.14,68,44.1,76.15c-1.73,1.76-3,1.6-4.66-.11C31.5,68,23.45,60.05,15.51,52a3.78,3.78,0,0,1-1-2.87C14.62,48.58,16.1,48,17,48c2.64-.16,5.3-.07,7.94-.08,3.8,0,3.8,0,3.8-3.95q0-13.18,0-26.38c0-3.38.33-3.7,3.77-3.71q9.38,0,18.73,0c3.38,0,3.88.56,3.89,4C55.14,22.37,55.13,26.91,55.13,31.45ZM21.6,51.78l-.44.86q9.63,9.44,19.24,18.88c1.17,1.15,2,.91,3-.21C49.24,65.38,55.13,59.52,61,53.63c.46-.46.84-1,1.58-1.84H54.81c-3.51,0-3.75-.21-3.76-3.67,0-9,0-18,0-27,0-1.09-.13-2.17-.2-3.26h-18c-.07,1.27-.18,2.38-.18,3.49,0,9,0,18,0,27,0,2.47-.84,3.68-3.51,3.48C26.65,51.64,24.12,51.78,21.6,51.78Z"/><path class="cls-1" d="M104.77,43.39c-4,0-7.76,0-11.52,0-.81,0-2.13-.45-2.28-1a3.23,3.23,0,0,1,.66-2.68c8.19-8.31,16.46-16.54,24.71-24.79,1.31-1.31,2.59-1.22,3.89.07,8.21,8.23,16.45,16.43,24.6,24.71a3.3,3.3,0,0,1,.71,2.7c-.12.49-1.47.91-2.29.94a68.87,68.87,0,0,1-8.5,0c-2.62-.22-3.45.66-3.41,3.29.13,8.89.06,17.78,0,26.67,0,4.08-.09,4.16-4.1,4.16q-9.23,0-18.44,0c-3.67,0-3.91-.24-3.92-3.83q0-13.48,0-26.95C104.92,45.67,104.83,44.66,104.77,43.39ZM97.83,39l.34.69h6.72c4,0,4.15.12,4.15,4.15,0,9.07,0,18.14,0,27.21,0,2.07.6,2.84,2.75,2.76a110,110,0,0,1,12.18,0c3.07.23,3.61-1,3.56-3.7-.15-8.78-.06-17.57-.05-26.36,0-4,.14-4.07,4.19-4.08h7c-.14-.63-.12-.88-.24-1q-9.33-9.42-18.69-18.83c-1.07-1.07-2-1-3.07.17-3.24,3.36-6.63,6.57-9.92,9.88C103.71,33,100.78,36,97.83,39Z"/><path class="cls-1" d="M95.84,136.45a11.79,11.79,0,0,1-10.41,3.62C76,139,68.18,134.83,63.23,126.51c-1.35-2.27-1.64-5.31-1.88-8-.18-2.15,1.15-3,3.55-2.46a34.7,34.7,0,0,1,13.17,6.69C84,127.24,89.83,131.8,95.84,136.45Z"/><path class="cls-1" d="M142.24,129.54c-2,6.22-6.75,8.93-12.17,10.29-7.72,1.95-15.33,1.6-22.32-2.87-.15-.1-.38-.11-.51-.22-2.39-2-5.41-4.4-4.26-7.52.57-1.51,4.54-2.55,6.92-2.45,7.89.33,15.76,1.28,23.64,2Z"/><path class="cls-1" d="M121.64,94.35c-9.06-1.18-15.2,3.89-21.9,7.59a71.76,71.76,0,0,1-10.18,4.63c-1.49.54-3.37,0-5.08,0,.12-1.84-.19-3.84.43-5.49,1.87-5,6.12-7.78,10.68-9.82,6-2.66,12.26-3.73,18.76-2A11.26,11.26,0,0,1,121.64,94.35Z"/><path class="cls-1" d="M88.28,110.8c8.41-1.18,14.65-6.84,22-10.28,3.12-1.46,6.75-2,10.21-2.55,1.8-.31,2.48.83,1.82,2.7-1.77,5.08-5.71,8.09-10.23,10.28-6.43,3.11-13.22,4.25-20.25,2.14a33.22,33.22,0,0,1-3.53-1.52Z"/><path class="cls-1" d="M97.49,132.22c-10.66-5.87-17.95-16-29.61-19.48,1.41-1.81,6.46-1.91,11.27-.28C89.9,116.09,97.41,123.89,97.49,132.22Z"/><path class="cls-1" d="M54.24,121.33c-11.43,3.17-23.68,1.2-34.38,7.1.34-4.07,7.58-9.15,15.67-11.14C43.36,115.36,51.44,117,54.24,121.33Z"/><path class="cls-1" d="M140.75,125.14c-12,.59-23.41-5-35.34-2.07,5.49-5.54,12.34-7,19.71-6.44C131.5,117.13,139,120.2,140.75,125.14Z"/><path class="cls-1" d="M57.45,124.3a15,15,0,0,1-.73,4.15,16.72,16.72,0,0,1-5,7.33,23.76,23.76,0,0,1-10,5.13A31.8,31.8,0,0,1,29.08,142c-2.67-.31-8.39-1-10.56-4.6a4,4,0,0,1-.65-3.1,4.05,4.05,0,0,1,2.53-2.15c13.54-5.33,18-6,18-6C43.65,125.39,50.07,124.66,57.45,124.3Z"/><path class="cls-1" d="M37.06,109.86a11.22,11.22,0,0,0,7.84,4.21c6.66,1,12.79-.82,18.39-4.16,4.3-2.56,8.19-5.84,9.46-11,.42-1.71-.12-3.66-.23-5.5-1.69.15-3.63-.16-5,.55a71.18,71.18,0,0,0-9.56,5.8C51.69,104.2,46.19,110,37.06,109.86Z"/><path class="cls-1" d="M68.25,89.6l-.07-.77a32.26,32.26,0,0,0-3.68-1.09c-7.24-1.27-13.84.66-19.86,4.51-4.24,2.7-7.79,6.15-9,11.4-.44,1.94.37,3,2.12,2.47,3.37-1,6.92-1.91,9.85-3.73C54.51,98.12,60,91.76,68.25,89.6Z"/><path class="cls-1" d="M37.06,109.86c9.13.1,14.63-5.66,20.85-10.11A71.18,71.18,0,0,1,67.47,94c1.42-.71,3.36-.4,5-.55.11,1.84.65,3.79.23,5.5-1.27,5.17-5.16,8.45-9.46,11-5.6,3.34-11.73,5.15-18.39,4.16A11.22,11.22,0,0,1,37.06,109.86Z"/><path class="cls-1" d="M68.25,89.6C60,91.76,54.51,98.12,47.66,102.39c-2.93,1.82-6.48,2.73-9.85,3.73-1.75.52-2.56-.53-2.12-2.47,1.16-5.25,4.71-8.7,9-11.4,6-3.85,12.62-5.78,19.86-4.51a32.26,32.26,0,0,1,3.68,1.09Z"/></svg>