<svg id="Layer_18" data-name="Layer 18" xmlns="http://www.w3.org/2000/svg" viewBox="0 0 160 160"><defs><style>.cls-1{fill:#33140a;}</style></defs><path class="cls-1" d="M54.44,37.65c.91-7.82,8.88-9.55,15.07-5.45a11.58,11.58,0,0,1,20-4.89c3.76-7,15.64-4.78,18.24,3.77a11.21,11.21,0,0,1,8.62-2.95,7.59,7.59,0,0,1,6.73,4.65c.21.47.89.7,1.27,1.12a30.43,30.43,0,0,1,7.7,14.52A31.73,31.73,0,0,1,128,71.79a33.59,33.59,0,0,1,4.15,10.34,21.71,21.71,0,0,1-2.45,15.12,2.09,2.09,0,0,0,.09,2.41c2.58,4.58,5.11,9.18,7.54,13.84a20.39,20.39,0,0,1,1.26,4.11,4.48,4.48,0,0,1-1.5,4.67A23.56,23.56,0,0,1,129,126.9c-8,3.11-16.38,4.83-24.83,6.18a115,115,0,0,1-20.63,1.71,143.69,143.69,0,0,1-28.09-3.55c-2-.44-3.64.28-5.45.47-4.37.48-8.73,1-13.11,1.35a12.85,12.85,0,0,1-4.25-.55c-3.17-.84-4.28-3.69-2.47-6.41a37,37,0,0,1,3.74-4.73,7.67,7.67,0,0,0,1.73-7.89c-.88-3.08-1.85-6.14-2.54-9.26a38.21,38.21,0,0,1,.14-14.84c.49-2.83,1.2-5.62,1.77-8.44a2.84,2.84,0,0,0,0-1.64c-4.64-9.08-4.33-18.27-.33-27.39A106.53,106.53,0,0,1,41,40c1.4-2.34,4-3.21,6.62-3.64A9.6,9.6,0,0,1,54.44,37.65ZM127.89,64c-1.51,1.26-2.88,2.58-4.41,3.67-5.38,3.84-11.56,5.61-18,6.7a112.09,112.09,0,0,1-20.79,1.21c-8-.13-16-.31-24-1.69-8.64-1.51-15.92-5.32-21.4-12.3L36.65,58.1a1.91,1.91,0,0,0-.28.47,25.72,25.72,0,0,0-.71,10.51A30.3,30.3,0,0,0,41.6,82.6c1,1.43,2.2,2.76,3.3,4.15a1.84,1.84,0,0,1,.1,2.39,1.77,1.77,0,0,1-2.19.68,3.15,3.15,0,0,1-1.22-1c-1.14-1.33-2.23-2.7-3.47-4.21C37.85,85.9,37.6,87,37.4,88c-1.1,5.74-1.66,11.49-.1,17.24.73,2.65,1.61,5.27,2.28,7.93a10.59,10.59,0,0,1-2.14,10c-.82,1-1.62,2-2.42,3-.61.76-1.2,1.53-1.8,2.3l.09.45a28,28,0,0,0,5.31.32c4.76-.55,9.5-1.37,14.25-2.06a5.39,5.39,0,0,1,1.92,0,138.9,138.9,0,0,0,28.32,3.73c12.47.24,24.65-1.91,36.66-5a54.11,54.11,0,0,0,12.84-4.62c2.44-1.35,2.66-1.9,1.77-4.58-1.75-5.23-4.63-9.88-7.63-14.46,0,0-.14-.07-.26-.14a46.63,46.63,0,0,1-13,10.44c-1.82,1-3.72,1.93-5.62,2.81-1.43.67-2.54.32-3-.84s.08-2.11,1.54-2.76l.56-.24a47.6,47.6,0,0,0,14.81-10.07c4.61-4.8,7.38-10.36,6.64-17.24a22.43,22.43,0,0,0-2.9-8.73c-1.67,1.5-3.17,3-4.87,4.31a30.51,30.51,0,0,1-5.41,3.4,50.24,50.24,0,0,1-33.46,3.41C76.12,85.19,70.59,83.45,65,81.93s-11.35-2.93-17.06,0a1.7,1.7,0,0,1-2.33-1.06,1.81,1.81,0,0,1,.81-2.44,12.6,12.6,0,0,1,1.89-.9c4.5-1.8,9.14-1.63,13.71-.54,5.83,1.39,11.59,3.08,17.38,4.63,8.91,2.39,17.83,3.16,26.9.65,6.54-1.82,12.37-4.66,16.83-9.91A24.58,24.58,0,0,0,127.89,64ZM40.29,48.71c-.7,1.52-1.32,2.77-1.83,4.06a1.53,1.53,0,0,0,.2,1.2c.9,1.37,1.85,2.72,2.83,4,4,5.36,9,9.39,15.58,11a63.05,63.05,0,0,0,9.81,1.76,196.2,196.2,0,0,0,33.76.29,50.65,50.65,0,0,0,15.79-3.65c5.18-2.22,9.14-5.63,11.45-11,2.07-4.76.48-8.89-1.53-13.21-.15.24-.22.3-.22.37,0,.37,0,.74,0,1.11-.22,7.32-3.17,13.15-9.39,17.19a35.2,35.2,0,0,1-18,5.38c-7.47.34-15,.23-22.45.32-5.23.07-10.45,0-15.52-1.51C51.53,63.34,43.93,58.55,40.29,48.71Zm81.87-6.27c-6.14,5.92-9.8,6.5-16,2.58l.38,3c5.71-.85,10,1.25,12.8,6.26A18.45,18.45,0,0,0,122.16,42.44Zm-64.72,3.7a11.16,11.16,0,0,1-8.87,9l-.07.36L55,60.17l.3-.26c-2-5.54.77-8.91,5.18-11.53ZM96.32,63.69l6.42-.61-2.3-6.92H96.68Zm8.1-28.54c.41-3.24-1.37-5.44-3.86-7.19a5.31,5.31,0,0,0-5.59-.6,6.77,6.77,0,0,0,3.12,3.78C100.17,32.47,102.27,33.79,104.42,35.15ZM91.13,43.78l-.33.1a10.12,10.12,0,0,0,0,2.4,8.24,8.24,0,0,0,6.2,6.2,6.64,6.64,0,0,0,2.42-.1c.79-.09,1-.68.56-1.23a6.84,6.84,0,0,0-1.83-1.73C95.57,47.86,92.79,46.55,91.13,43.78ZM58.46,36.91c-1.44,3.4,2.39,8.16,5.87,8.79a9,9,0,0,0,2.54-.06c.75-.09,1-.66.56-1.24a6.84,6.84,0,0,0-1.84-1.72C63,41.11,60.22,39.81,58.46,36.91ZM71.1,54.51l.15-.29a14,14,0,0,0-1.59-1.59,8.53,8.53,0,0,0-9,0c-.88.63-2.12,1.49-1.63,2.56s1.93.71,3,.42C65,54.76,68,53.82,71.1,54.51Zm5.39-12.83-.29-.19c-.61.66-1.49,1.22-1.78,2a14.67,14.67,0,0,0-1,4.6A5.92,5.92,0,0,0,76,53.5c1,.66,1.66.38,1.74-.83a7.39,7.39,0,0,0-.33-2.41C76.64,47.45,75.84,44.66,76.49,41.68ZM86.86,30.06c-1.59-2.33-3.76-2.88-6.12-2.86a7.49,7.49,0,0,0-6.68,3.55,7.86,7.86,0,0,0,5.83.27C82.1,30.43,84.27,29.58,86.86,30.06ZM111.12,43.5c3.79,1.64,9.81-3.47,8.89-7.94,0-.16-.07-.32-.11-.48-.17-.76-.7-1-1.26-.54a7,7,0,0,0-1.72,1.84C115.35,39,114.07,41.78,111.12,43.5ZM74.37,35.05A3.46,3.46,0,0,0,78,37.16a8.4,8.4,0,0,1,2.78.3,5.4,5.4,0,0,0,5.93-1.93c.53-.7.36-1.24-.35-1.42A5.52,5.52,0,0,0,83.82,34C80.73,34.79,77.69,35.88,74.37,35.05ZM45.57,51.51c2.65-.17,4.76-.73,6.36-2.58,1.88-2.18,2.47-4.53,1.39-6.25C49.81,44.75,48.79,48.93,45.57,51.51Zm69.51,6.94c1.24-.42,1.37-1.08,1-2a8.52,8.52,0,0,0-5.2-4.77,4.15,4.15,0,0,0-3.77.44C109,55.28,113.18,55.47,115.08,58.45Zm.52-26.83a8.41,8.41,0,0,0-6.91,4.68,4.52,4.52,0,0,0-.37,4.37,5.93,5.93,0,0,0,1.56-1C111.76,37.08,113.58,34.48,115.6,31.62ZM70.16,41c.26-4-5.24-8.49-8.72-6.88a7,7,0,0,0,3.36,3.59Zm32.66,6.79c-.09-2.67-1.61-4.51-3.63-6a5.43,5.43,0,0,0-5.24-1,7.37,7.37,0,0,0,3.41,3.69Zm-21,5c2.06-2,2.2-4.47,1.77-7a4.76,4.76,0,0,0-3-4.1,11.28,11.28,0,0,0-.34,1.28C79.66,46.34,81.85,49.34,81.84,52.75Zm-.49,10.82c1.87-.74,2.91-2.28,3.88-3.91s2-3.21,3-4.81C84.85,54.38,79.5,59.82,81.35,63.57ZM60,59.87c2.06,2.05,4.58,2.21,7.2,1.73a5.27,5.27,0,0,0,4.05-2.93C67.21,57.11,63.77,59.93,60,59.87Zm27.35,3.87c1.34,0,2.52,0,3.69,0a1,1,0,0,0,.7-.38A6.31,6.31,0,0,0,93.06,59c-.07-.53-.44-1.34-.82-1.44s-1.06.39-1.57.69a1.5,1.5,0,0,0-.44.57C89.3,60.38,88.39,62,87.36,63.74Zm24.54-3.23-7.36-4.74a7,7,0,0,0,2.87,6,.88.88,0,0,0,.56.15C109.19,61.48,110.4,61,111.9,60.51ZM77.09,63.66l.7-5.48-2.12-.55a10.26,10.26,0,0,1-4,6ZM49.56,39.8a6.44,6.44,0,0,0-5.44,2.45c-1.35,1.61-.36,3.29-.13,5Zm42.93-8.54a5.4,5.4,0,0,0,1.33,4.26c.37.47.79,1.1,1.3,1.23,2,.51,4,.85,6.19,1.28C98.73,35.3,94.59,34.57,92.49,31.26Zm-2,5.88-4.84,4,1.47,2.63a8.68,8.68,0,0,1,3.18-5.51C90.47,38.06,90.4,37.59,90.47,37.14ZM87.19,51.07h1.53l-1-2Z"/><path class="cls-1" d="M69.28,105.9C69.26,96,79,88.14,88.42,90.58a10.62,10.62,0,0,1,8.1,9.61,15.94,15.94,0,0,1-15,17.29C74.42,117.9,69.29,113,69.28,105.9ZM89.22,95.23v-.46a20.35,20.35,0,0,0-3.61-.92C80.08,93.44,74,98.5,73,104.15a7.93,7.93,0,0,0,.58,4.93,1.73,1.73,0,0,0,1.26.8,4,4,0,0,0,3.61-2c.91-1.37,1.74-2.79,2.54-4.23C83,100.13,85.39,97,89.22,95.23Zm-11.2,18c3.66,1.66,8.52,0,12-4.08,3-3.44,3.83-8,1.9-11a38,38,0,0,0-3.66,2.36c-2.27,1.82-3.43,4.46-4.84,6.91C82.09,109.72,80.68,111.92,78,113.21Z"/><path class="cls-1" d="M72.08,126.59c-8-.12-15.49-1.86-22.23-6.29a30.36,30.36,0,0,1-3.56-2.84A2,2,0,1,1,49,114.64c4.9,4.64,10.92,6.71,17.43,7.59A44.76,44.76,0,0,0,79.05,122c.12,0,.24,0,.37,0,1.72-.17,2.64.39,2.77,1.66s-.73,2.07-2.38,2.23C77.24,126.16,74.66,126.36,72.08,126.59Z"/></svg>