<svg id="Layer_19" data-name="Layer 19" xmlns="http://www.w3.org/2000/svg" viewBox="0 0 160 160"><defs><style>.cls-1{fill:#33140a;}</style></defs><path class="cls-1" d="M107.84,68.37c0,3-.13,5.53.07,8a4.36,4.36,0,0,0,1.41,2.67q11.61,10.11,23.36,20c1.15,1,2.25,2,.92,3.27-.49.44-2.43,0-3.21-.67-6.71-5.58-13.31-11.29-19.95-17-.69-.59-1.44-1.12-2.65-2,2.17,6,.71,10.21-4.85,13,6,4.91,11.71,9.63,17.45,14.31,3.94,3.22,7.91,6.39,11.86,9.59.33.26.76.57.85.93a19.88,19.88,0,0,1,.31,2.56c-.87,0-2,.34-2.57-.09-7.63-6.08-15.18-12.26-22.74-18.42-3.21-2.62-6.41-5.26-9.89-8.1-1.46,4-3.55,7.13-8.14,7.45-4.41.31-7.11-2-9-5.77-2.14,3.08-4,6.1-6.16,8.79-6.15,7.47-14.24,12.42-22.62,17q-12.3,6.69-24.53,13.52c-2,1.11-3.47.5-3.52-2-.14-7-.54-14,.07-21A49.64,49.64,0,0,1,35.32,86.67,43.48,43.48,0,0,1,60.46,71.41a13.42,13.42,0,0,0,1.94-.8c-4.21-3.47-8.1-6.69-12-9.88q-12.51-10.21-25-20.4c-.4-.32-.9-.64-1.07-1.07a18.49,18.49,0,0,1-.64-2.59c1,0,2.26-.37,2.89.11,4,3,7.84,6.23,11.72,9.41,9.43,7.72,18.81,15.53,28.35,23.12,1.06.84,3,.57,4.61.69,1.34.1,2.69,0,4,0C75,66.9,75,64.09,74.72,61.3A3.88,3.88,0,0,0,73.43,59Q55.61,43.68,37.72,28.41c-.39-.33-.94-.61-1.09-1a27.45,27.45,0,0,1-.71-3c1,.11,2.22-.12,2.84.4,6.09,5,12.09,10.15,18.09,15.27,5.54,4.73,11.05,9.49,16.58,14.22a15.77,15.77,0,0,0,1.84,1.16c1.58-9.33,5.67-17,12.75-23a42.93,42.93,0,0,1,23.91-10c7.18-.68,14.47-.31,21.71-.23,3,0,3.3,1.09,2,3.65-3.46,6.6-6.88,13.23-10.09,19.95C121.17,54.86,116.07,63.26,107.84,68.37ZM27.62,132.68c9.93-5.21,19.68-10,29.11-15.38,7.16-4.08,13.67-9.19,18.16-16.34,1.56-2.48,2.77-5.17,4-7.46-3.13-.23-6.38.5-8.13-.79-3.22-2.37-5-.65-7.24.92-.49.34-1,.69-1.47,1-9.1,5.65-17.53,12-23,21.54-.73,1.28-1.7,2.3-2.92,1.36-.54-.42-.46-2.4,0-3.27a44,44,0,0,1,11.39-13.51c5.47-4.14,11.19-8,16.7-12a3.92,3.92,0,0,0,1.34-2.84c-.08-4.39,2.12-8,6.39-9,2.17-.5,4.58.07,7.36.18.22-.43.73-1.45,1.4-2.8-1.51-.2-2.66-.43-3.82-.49A52.63,52.63,0,0,0,57,76c-12.89,4.33-21.38,13-26.11,25.63-3.44,9.13-4.1,18.61-3.6,28.24C27.3,130.8,27.48,131.68,27.62,132.68ZM131.29,25.45c-11.49-.71-22.29-.37-32.56,4.41-11.28,5.25-17.89,14-20,26.19-.46,2.75-.07,5.65-.07,9,.61-1.3,1-2.15,1.38-3,1.6-3,5.72-5.31,8.79-4.14,2.91,1.11,4-.3,5.14-2.26.48-.8,1-1.57,1.51-2.35,5.15-8.17,10.93-15.72,19.57-20.59,1.19-.66,2.32-1.56,3.28-.09,1.08,1.64-.47,2.43-1.53,3.21-2,1.45-4.06,2.74-6,4.26-6,4.7-9.55,11.31-13.89,17.35-1.88,2.62-2.57,4.89-.83,7.64,2.14.09,4.42-.15,6.48.39a4.53,4.53,0,0,0,4.18-.77,31.79,31.79,0,0,0,10.28-11.08c3.76-7,7.16-14.25,10.72-21.38C128.89,30.12,130,28,131.29,25.45ZM92.49,66.27a5,5,0,0,0-10,.06,5.17,5.17,0,0,0,5.19,5.16A5.1,5.1,0,0,0,92.49,66.27Zm0,14a5.17,5.17,0,0,0-4.86-5.17,5.23,5.23,0,0,0-5.21,5.12,5.38,5.38,0,0,0,5,5.09A5.31,5.31,0,0,0,92.47,80.28Zm7.19-11.8a5.11,5.11,0,0,0-5,5,5,5,0,1,0,10.07-.17A5.1,5.1,0,0,0,99.66,68.48ZM89.45,100.57a5.33,5.33,0,0,0,4.91-5.23,5,5,0,1,0-10,.16A5.33,5.33,0,0,0,89.45,100.57ZM74.31,90.06a5,5,0,0,0,5-5,5.06,5.06,0,0,0-5.09-5,5,5,0,0,0-4.87,5.11A4.77,4.77,0,0,0,74.31,90.06Zm26-7.75a4.75,4.75,0,0,0-5,4.93,4.88,4.88,0,0,0,4.81,5.11,5,5,0,0,0,.18-10Z"/></svg>