<svg id="Layer_21" data-name="Layer 21" xmlns="http://www.w3.org/2000/svg" viewBox="0 0 160 160"><defs><style>.cls-1{fill:#33140a;}</style></defs><path class="cls-1" d="M69.6,91.84c2.38.74,4.74,1.29,7,2.21a21.37,21.37,0,0,1,4.78,2.89,8.69,8.69,0,0,1,3.42,7.36c-.11,6.66-.16,13.33,0,20,.12,4.2-1.76,7.06-5.11,9.21a26.53,26.53,0,0,1-13,3.85c-5.75.36-11.34-.37-16.5-3.12-2.92-1.56-5.34-3.62-6.13-7a8.82,8.82,0,0,1-.17-2c0-7,0-14,0-21.06a8.8,8.8,0,0,1,2.92-6.79c3-2.8,6.64-4.11,10.53-5l2-.39c-.51-1.49-1-2.93-1.53-4.33a1.65,1.65,0,0,0-1-.66A32.8,32.8,0,0,1,36.26,72c-11.7-18.88-.33-44.73,21.51-48.85A32.67,32.67,0,0,1,73,86.69,2.85,2.85,0,0,0,70.51,89C70.28,90,69.89,91,69.6,91.84ZM64.4,96.2c.22-.58.37-.94.5-1.31,1-3,2.11-6,3.06-9a2.92,2.92,0,0,1,2.42-2.13,39.2,39.2,0,0,0,6-1.93c16.49-7.12,22.45-28.58,12-43.22C79,25.45,62.06,22.1,48.36,30.7a29.41,29.41,0,0,0-13,29.19A29,29,0,0,0,58.47,83.81a2.82,2.82,0,0,1,2.32,2.07C61.92,89.26,63.14,92.62,64.4,96.2Zm-4-.92c-1.57.34-3,.55-4.36.94a15.35,15.35,0,0,0-7.32,4c-1.9,2-2,4.41,0,6.31a15.39,15.39,0,0,0,4.85,3.22,29,29,0,0,0,21.45,0,15.64,15.64,0,0,0,5-3.31c1.86-1.78,1.76-4.07,0-6a11.39,11.39,0,0,0-2.35-2,22.64,22.64,0,0,0-9.3-3c-.72,2.09-1.45,4.15-2.14,6.21-.29.87-.72,1.57-1.73,1.6s-1.54-.71-1.86-1.62C61.94,99.53,61.2,97.48,60.42,95.28Zm-13,30a3.28,3.28,0,0,0,1.1,3.27A20.11,20.11,0,0,0,53.65,132,28.8,28.8,0,0,0,75,132a19.31,19.31,0,0,0,5-3.26,3.5,3.5,0,0,0,1.28-3.47C69.9,131.67,58.69,131.66,47.4,125.3Zm0-15.11a3.7,3.7,0,0,0,1.28,3.74,22,22,0,0,0,5.23,3.35,29.47,29.47,0,0,0,17.91.94A15.19,15.19,0,0,0,79.9,114a4,4,0,0,0,1.25-3.74C72.3,117,55.49,116.5,47.42,110.19Zm33.79,7.69c-11.31,6.34-22.53,6.34-33.83,0a3.54,3.54,0,0,0,1.28,3.45,20.41,20.41,0,0,0,4.85,3.23c5.88,2.44,12,2.51,18.15,1.14a15.36,15.36,0,0,0,8.21-4.24A4,4,0,0,0,81.21,117.88Z"/><path class="cls-1" d="M87.52,107.27c0-5.76.08-11.53,0-17.29a9.29,9.29,0,0,1,3.83-7.86,22.41,22.41,0,0,1,10.54-4.31c6.43-1,12.76-.71,18.78,2a20.45,20.45,0,0,1,4.69,3,8.55,8.55,0,0,1,3.08,7c0,11.62-.07,23.24,0,34.86a9.47,9.47,0,0,1-3.91,8A23.25,23.25,0,0,1,113,137.06c-6.36.87-12.58.36-18.45-2.45-3.14-1.5-5.8-3.56-6.8-7.13a7.73,7.73,0,0,1-.25-2Q87.51,116.4,87.52,107.27ZM108,80.56c-2.3.28-4.63.42-6.89.89-3.36.68-6.54,1.86-8.91,4.53-1.71,1.93-1.77,4.17,0,6A12.56,12.56,0,0,0,96,94.75a28.82,28.82,0,0,0,23.87,0,12.12,12.12,0,0,0,3.66-2.64,4.08,4.08,0,0,0,0-6.28A14.79,14.79,0,0,0,120,83.26C116.25,81.3,112.19,80.77,108,80.56Zm16.87,30.3c-11.32,6.4-22.58,6.4-33.91,0a3.65,3.65,0,0,0,1.24,3.39,21,21,0,0,0,4.94,3.33c5.83,2.43,11.91,2.5,18,1.17a16.57,16.57,0,0,0,7.68-3.6C124.16,114,125.14,112.65,124.89,110.86Zm0-14.87c-11.34,6.4-22.6,6.43-33.92,0a3.91,3.91,0,0,0,1.27,3.45,16,16,0,0,0,3.85,2.82c6,2.81,12.24,3.05,18.6,1.75,3.28-.67,6.37-1.81,8.76-4.31A4.26,4.26,0,0,0,124.89,96ZM91,125a4.09,4.09,0,0,0,1.37,3.85A19.39,19.39,0,0,0,97.24,132a29.67,29.67,0,0,0,21,.23,12.08,12.08,0,0,0,5.54-3.62,4,4,0,0,0,1.07-3.61C119.7,128.77,114,130,107.93,130S96.16,128.76,91,125Zm33.89-21.57c-11.34,6.43-22.6,6.41-33.94,0a3.84,3.84,0,0,0,1.29,3.43,22.49,22.49,0,0,0,5.32,3.46,29.54,29.54,0,0,0,17.91,1,15.45,15.45,0,0,0,8-4.13A4.31,4.31,0,0,0,124.89,103.42Zm0,14.86c-11.33,6.43-22.58,6.43-34,.09a7.15,7.15,0,0,0,1.45,2.93,18.72,18.72,0,0,0,4.83,3.25c5.84,2.43,11.91,2.51,18,1.19a16.18,16.18,0,0,0,8-3.88A4.6,4.6,0,0,0,124.9,118.28Z"/><path class="cls-1" d="M79.29,45c1,.21,1.9.33,2.75.57,5.49,1.56,8.48,6.85,7.36,12.86s-6,9.68-10.89,9.66a1.33,1.33,0,0,0-1,.57c-2.35,4.63-6.36,6.89-11.24,7.76-5.39,1-10.71.77-15.66-1.89-5.26-2.84-8.15-7.29-8.27-13.29-.14-6.39,0-12.78,0-19.17,0-1.47.56-2,2-2q16.5,0,33,0c1.43,0,2,.61,2,2.06C79.31,43.05,79.29,44,79.29,45ZM45.77,43.49a7.05,7.05,0,0,0-.08.76c0,5.72,0,11.44.06,17.15A11,11,0,0,0,52,71.35c4.5,2.45,9.33,2.53,14.21,1.56,3.82-.76,7-2.63,8.48-6.42a2.57,2.57,0,0,1,2.9-1.88c4.36.16,7.33-2.12,8.35-6.2,1.15-4.63-.91-8.59-5.06-9.62A14.46,14.46,0,0,0,78,48.47c-1.68-.08-2.19-.58-2.21-2.3V43.49Z"/><path class="cls-1" d="M50.07,59.06a13.38,13.38,0,0,1,9.54-12.65A9.09,9.09,0,0,1,71,53a13.43,13.43,0,0,1-8.71,15.78,9.28,9.28,0,0,1-12.22-8.66C50.05,59.78,50.07,59.42,50.07,59.06Zm6.13,5.73a4.75,4.75,0,0,0,4.5.87,10,10,0,0,0,7.24-10.51c-.29-2.08-1-4-3.15-4.87-1.21-.25-2.47-.85-3.63-.68-5,.73-8.75,6.69-7.46,11.61A5,5,0,0,0,56.2,64.79Z"/><path class="cls-1" d="M75.84,56.54c0-1.6,0-3.21,0-4.82,0-1.43.62-2,2-2,4.08-.09,6.66,1.83,7,5.24.45,4.15-1.68,7.6-5.22,8.35a8.9,8.9,0,0,1-2,.13,1.68,1.68,0,0,1-1.87-1.91c0-1.65,0-3.3,0-5Zm3.57-3.29v6.48a4,4,0,0,0,2-4.57A2.08,2.08,0,0,0,79.41,53.25Z"/><path class="cls-1" d="M64.83,50.25c.86.83.75,1.81.69,2.92A6.74,6.74,0,0,1,62,58.9c-.26.16-.46.43-.72.59A4.19,4.19,0,0,0,59.25,63c-.21,2-1,2.46-3,1.77a6.56,6.56,0,0,1,1.59-6.84,17,17,0,0,1,1.56-1.27A5.59,5.59,0,0,0,62.23,52C62.31,50.51,63,50.2,64.83,50.25Z"/></svg>