<svg id="Layer_33" data-name="Layer 33" xmlns="http://www.w3.org/2000/svg" viewBox="0 0 160 160"><defs><style>.cls-1{fill:#33140a;}</style></defs><path class="cls-1" d="M49.5,24.85a26,26,0,1,1-26,25.83A26,26,0,0,1,49.5,24.85ZM45.23,46c1.42-3.68,5.21-5.62,9.42-4.85,1.33.25,2.07,0,2.23-1.41a5.93,5.93,0,0,1,.19-.81c.56-2.09.46-2.2-1.76-2.47-8.05-1-13.41,3.34-15.45,8.77a1.4,1.4,0,0,1-1,.74c-2,.24-1.87.22-2,2.16-.14,1.72,1.09,1.47,2,1.64v1.87c-2,.33-2,.33-2,2.53,0,.87.26,1.41,1.18,1.27,1.16-.17,1.6.37,2,1.39A13.45,13.45,0,0,0,54.93,65.3c3.11-.51,3-.49,2.44-3.55-.27-1.38-.8-1.6-2.07-1.32a8.44,8.44,0,0,1-7.88-1.82,20.61,20.61,0,0,1-2.22-2.84,42.6,42.6,0,0,1,6.32-.33c2.35,0,2.31,0,2.69-2.34C54.38,52,54,51.75,53,51.76c-1.59,0-3.18,0-4.77,0H44.2V49.64h8.48c2.26,0,2.19,0,2.63-2.21.24-1.18-.11-1.49-1.25-1.47C51.16,46,48.27,46,45.23,46Z"/><path class="cls-1" d="M84.65,109.36a25.87,25.87,0,1,1,25.83,25.79A25.89,25.89,0,0,1,84.65,109.36Zm25.79-17.74c-1.83,0-2.21.16-2.07,1.44.21,2-.56,2.88-2.38,3.6a6.82,6.82,0,0,0-4.38,6.18,6.72,6.72,0,0,0,3.54,6.67c1.15.7,2.41,1.21,3.63,1.8,1,.49,2.06.9,3,1.47a2.6,2.6,0,0,1,1.49,2.78,2.35,2.35,0,0,1-2.33,2.08,19.53,19.53,0,0,1-5.35-.52c-3.22-.86-3.13-1-4.07,2.29-.34,1.17,0,1.83,1,2.17a37,37,0,0,0,4,1.13c.94.2,1.42.58,1.37,1.57,0,.51.07,1,.06,1.54,0,.83.43,1.12,1.21,1.22,2.9.38,3.33.08,3.3-2.75a2,2,0,0,1,1.52-2.16c3.24-1.12,5.29-3.33,5.55-6.85s-1.49-6.19-4.85-7.81c-1.77-.85-3.57-1.63-5.31-2.54-1-.53-2-1.33-1.57-2.66a2.37,2.37,0,0,1,2.74-1.72,36.87,36.87,0,0,1,5.32,1c.91.24,1.35.18,1.69-.76,1.31-3.67,1.16-4-2.65-4.9a5.12,5.12,0,0,0-.68-.14c-1.2-.08-1.66-.68-1.67-1.9C112.65,91.66,112.56,91.64,110.44,91.62Z"/><path class="cls-1" d="M105.08,58H82.25a36.15,36.15,0,0,0,0-14.21h22.85c0-2.67,0-5.23,0-7.79a4.26,4.26,0,0,1,.46-2c.63-1.08,1.76-1.16,3.2-.33q7.92,4.53,15.81,9.08l10.22,5.87c2.28,1.33,2.3,3.15,0,4.46Q121.89,60.53,109,68c-2.3,1.33-3.84.46-3.87-2.19S105.08,60.74,105.08,58Z"/><path class="cls-1" d="M77.48,116.45H54.93v6.67c0,.61,0,1.22,0,1.83a2.12,2.12,0,0,1-3.31,1.82c-2-1.1-4-2.28-6-3.43L25.35,111.63c-2.48-1.44-2.48-3.14,0-4.57L50.85,92.34c2.63-1.52,4.07-.68,4.08,2.38,0,2.47,0,4.93,0,7.55H77.48Z"/></svg>