<svg id="Layer_20" data-name="Layer 20" xmlns="http://www.w3.org/2000/svg" viewBox="0 0 160 160"><defs><style>.cls-1{fill:#33140a;}</style></defs><path class="cls-1" d="M119.73,15.12c1.82,1.58,1.85,2.58.09,4.32-.64.63-1.33,1.22-1.94,1.78,15.73,18.7,20.49,39.64,12.16,62.49-8.39,23-25.87,35.46-50,39.2v7c3,.66,5.94,1.19,8.83,2a54.38,54.38,0,0,1,17.64,8.55c2.07,1.5,2.12,2.73.21,4.39H40.25c-1.91-1.67-1.86-2.89.21-4.39A56.06,56.06,0,0,1,66,130.26a9.68,9.68,0,0,0,.95-.21v-7.29a61.92,61.92,0,0,1-18.65-5.07,60.09,60.09,0,0,1-16.18-10.78c-.83.91-1.58,1.81-2.42,2.62a2.16,2.16,0,1,1-3.08-3q4.22-4.29,8.5-8.51a2.16,2.16,0,1,1,3,3.07c-.9.94-1.88,1.81-2.83,2.71,18.38,18.18,52.08,22.19,75.84.62a55.75,55.75,0,0,0,3.49-79.9c-.86.89-1.7,1.8-2.59,2.67-1.14,1.12-2.39,1.21-3.33.28s-.86-2.21.26-3.33c3-3,6.06-6,9.1-9ZM98.08,140.5a48.56,48.56,0,0,0-24.68-6.43c-8.47,0-21.75,3.49-24.44,6.43ZM71.43,123.1v6.56h4.15V123.1Z"/><path class="cls-1" d="M116.76,62.71c0,23.55-19.67,43.23-43.23,43.24S30.21,86.23,30.25,62.62,50,19.42,73.55,19.45,116.76,39.14,116.76,62.71Zm-4.33.08a38.59,38.59,0,0,0-38.57-39C52,23.66,34.67,40.66,34.58,62.34c-.1,21.94,16.94,39.23,38.7,39.29A38.58,38.58,0,0,0,112.43,62.79Z"/><path class="cls-1" d="M65.83,85.71c-6-.15-11.63-2.38-14.73-8.91-1.9-4-1.83-8.22-.9-12.44C53.15,51,66.52,40,80.21,39.69a17.58,17.58,0,0,1,11,3.11c4.79,3.46,6.63,8.37,6.21,14.06C96.61,67.6,90.88,75.38,82,81A28.65,28.65,0,0,1,65.83,85.71ZM80.37,42.85a39.2,39.2,0,0,0-4.06.54C67,45.61,60.16,51.21,55.51,59.47a18,18,0,0,0-2.35,12.59c1.46,7.42,7.8,10.77,14.51,10.38A26.1,26.1,0,0,0,82,76.85c5.94-4.46,10.45-10,11.89-17.49.94-4.88,0-9.35-3.73-12.89C87.44,43.91,84.07,43,80.37,42.85Z"/><path class="cls-1" d="M73.89,60.45c5,.43,7.6-2.82,9-7,.56-1.72,1.29-2.39,2.4-2s1.49,1.32,1,3c-1.15,3.66-3,6.87-6.62,8.51a11.22,11.22,0,0,1-4.89,1,8.85,8.85,0,0,0-8.63,4.68,32.32,32.32,0,0,0-1.85,4.31C63.78,74,63,74.54,62,74.2a1.63,1.63,0,0,1-1.13-2.12c1.27-4.48,3.38-8.43,7.8-10.52a28.47,28.47,0,0,1,5.16-1.42Z"/></svg>